<?xml version="1.0" encoding="utf-8"?>
<!-- Generator: Adobe Illustrator 16.0.0, SVG Export Plug-In . SVG Version: 6.00 Build 0)  -->
<!DOCTYPE svg PUBLIC "-//W3C//DTD SVG 1.1//EN" "http://www.w3.org/Graphics/SVG/1.1/DTD/svg11.dtd">
<svg version="1.1" id="Capa_1" xmlns="http://www.w3.org/2000/svg" xmlns:xlink="http://www.w3.org/1999/xlink" x="0px" y="0px"
	 width="15.869px" height="15.795px" viewBox="0 0 15.869 15.795" enable-background="new 0 0 15.869 15.795" xml:space="preserve">
<g>
	<g>
		<path fill="#FFFFFF" d="M4.685,5.415c-0.129,0-0.124,0.2,0.004,0.2C4.818,5.615,4.813,5.415,4.685,5.415z"/>
		<path fill="#FFFFFF" d="M2.048,4.163c-0.583,0.375-1.138,0.786-1.67,1.23c-0.098,0.083,0.047,0.22,0.144,0.139
			C1.039,5.098,1.583,4.701,2.15,4.333C2.257,4.265,2.156,4.093,2.048,4.163z"/>
		<path fill="#FFFFFF" d="M2.245,3.513C1.636,3.815,1.07,4.181,0.542,4.609c-0.099,0.08,0.045,0.217,0.145,0.137
			C1.2,4.331,1.755,3.978,2.347,3.684C2.462,3.628,2.359,3.457,2.245,3.513z"/>
		<path fill="#FFFFFF" d="M2.172,2.817L1.254,3.393c-0.246,0.154-0.51,0.294-0.717,0.499C0.446,3.982,0.589,4.119,0.68,4.03
			C0.903,3.809,1.2,3.662,1.464,3.496c0.271-0.169,0.541-0.337,0.811-0.507C2.383,2.921,2.281,2.75,2.172,2.817z"/>
		<path fill="#FFFFFF" d="M2.496,1.796C1.854,2.218,1.227,2.66,0.616,3.125c-0.102,0.077,0,0.25,0.103,0.172
			c0.61-0.466,1.237-0.909,1.879-1.331C2.704,1.897,2.603,1.725,2.496,1.796z"/>
		<path fill="#FFFFFF" d="M2.419,1.212C1.86,1.387,1.355,1.66,0.9,2.03C0.802,2.11,0.946,2.247,1.044,2.167
			c0.427-0.346,0.905-0.599,1.429-0.763C2.596,1.366,2.541,1.174,2.419,1.212z"/>
		<path fill="#FFFFFF" d="M2.301,4.619C1.643,5,1.031,5.444,0.465,5.953C0.369,6.038,0.513,6.175,0.608,6.09
			c0.554-0.496,1.152-0.927,1.795-1.3C2.515,4.726,2.412,4.555,2.301,4.619z"/>
		<path fill="#FFFFFF" d="M1.745,5.601C1.257,5.944,0.768,6.287,0.28,6.629C0.175,6.702,0.277,6.874,0.382,6.8
			C0.87,6.458,1.359,6.115,1.847,5.773C1.952,5.699,1.85,5.528,1.745,5.601z"/>
		<path fill="#FFFFFF" d="M1.839,6.415c-0.48,0.315-0.964,0.624-1.454,0.923C0.276,7.405,0.379,7.576,0.488,7.508
			c0.489-0.3,0.974-0.608,1.453-0.923C2.048,6.516,1.946,6.345,1.839,6.415z"/>
		<path fill="#FFFFFF" d="M1.946,7.074c-0.494,0.263-0.96,0.57-1.396,0.919c-0.1,0.078,0.002,0.25,0.102,0.17
			c0.437-0.349,0.902-0.655,1.397-0.918C2.162,7.185,2.059,7.014,1.946,7.074z"/>
		<path fill="#FFFFFF" d="M1.841,7.915c-0.504,0.368-1.023,0.714-1.557,1.04c-0.109,0.066-0.008,0.237,0.102,0.17
			C0.92,8.8,1.439,8.454,1.944,8.085C2.046,8.01,1.945,7.839,1.841,7.915z"/>
		<path fill="#FFFFFF" d="M1.878,8.488c-0.46,0.38-0.933,0.742-1.417,1.091C0.358,9.653,0.46,9.824,0.564,9.75
			c0.498-0.358,0.983-0.733,1.458-1.123C2.121,8.546,1.976,8.409,1.878,8.488z"/>
		<path fill="#FFFFFF" d="M2.093,9.287C1.549,9.627,1.028,9.998,0.528,10.4c-0.1,0.08,0.045,0.217,0.144,0.137
			c0.487-0.391,0.995-0.749,1.524-1.079C2.303,9.389,2.202,9.218,2.093,9.287z"/>
		<path fill="#FFFFFF" d="M2.191,10.032C1.57,10.434,1,10.898,0.482,11.427c-0.09,0.091,0.055,0.229,0.144,0.137
			c0.506-0.514,1.061-0.969,1.667-1.36C2.401,10.133,2.299,9.962,2.191,10.032z"/>
		<path fill="#FFFFFF" d="M2.109,10.745c-0.487,0.369-0.943,0.774-1.368,1.214c-0.089,0.092,0.055,0.229,0.144,0.137
			c0.413-0.427,0.854-0.82,1.326-1.181C2.312,10.839,2.21,10.668,2.109,10.745z"/>
		<path fill="#FFFFFF" d="M2.166,11.565c-0.471,0.426-0.943,0.852-1.414,1.277c-0.095,0.084,0.049,0.222,0.144,0.138
			c0.471-0.426,0.943-0.852,1.414-1.278C2.405,11.617,2.26,11.479,2.166,11.565z"/>
		<path fill="#FFFFFF" d="M2.518,12.303c-0.488,0.361-0.958,0.742-1.413,1.143c-0.096,0.084,0.048,0.222,0.145,0.138
			c0.441-0.39,0.897-0.76,1.37-1.109C2.722,12.397,2.62,12.228,2.518,12.303z"/>
		<path fill="#FFFFFF" d="M2.844,12.967c-0.485,0.4-0.989,0.77-1.515,1.114c-0.107,0.073-0.005,0.244,0.102,0.174
			c0.54-0.355,1.058-0.739,1.556-1.151C3.086,13.022,2.942,12.885,2.844,12.967z"/>
		<path fill="#FFFFFF" d="M3.541,13.313c-0.464,0.39-0.954,0.742-1.47,1.059c-0.109,0.067-0.007,0.238,0.102,0.171
			c0.531-0.324,1.035-0.688,1.512-1.092C3.783,13.37,3.638,13.232,3.541,13.313z"/>
		<path fill="#FFFFFF" d="M4.106,13.639c-0.517,0.345-1.013,0.717-1.488,1.117c-0.098,0.084,0.046,0.222,0.144,0.138
			c0.463-0.387,0.944-0.748,1.446-1.084C4.314,13.739,4.213,13.568,4.106,13.639z"/>
		<path fill="#FFFFFF" d="M4.458,13.894c-0.371,0.28-0.731,0.571-1.082,0.877c-0.097,0.084,0.048,0.221,0.144,0.137
			c0.336-0.294,0.683-0.574,1.04-0.843C4.662,13.989,4.56,13.817,4.458,13.894z"/>
		<path fill="#FFFFFF" d="M5.679,13.72c-0.667,0.409-1.278,0.894-1.831,1.445c-0.091,0.093,0.053,0.229,0.145,0.138
			c0.541-0.541,1.137-1.012,1.789-1.412C5.891,13.823,5.789,13.652,5.679,13.72z"/>
		<path fill="#FFFFFF" d="M6.629,13.849c-0.603,0.417-1.183,0.862-1.742,1.336c-0.097,0.081,0.047,0.219,0.145,0.138
			c0.544-0.463,1.111-0.896,1.699-1.303C6.836,13.946,6.734,13.776,6.629,13.849z"/>
		<path fill="#FFFFFF" d="M7.372,13.994c-0.58,0.457-1.16,0.916-1.739,1.375c-0.1,0.079,0.002,0.25,0.102,0.171
			c0.579-0.459,1.159-0.918,1.739-1.375C7.573,14.087,7.472,13.913,7.372,13.994z"/>
		<path fill="#FFFFFF" d="M8.351,14.056c-0.66,0.396-1.26,0.871-1.799,1.423c-0.089,0.093,0.055,0.229,0.145,0.138
			c0.526-0.538,1.112-1.003,1.756-1.39C8.564,14.159,8.462,13.989,8.351,14.056z"/>
		<path fill="#FFFFFF" d="M9.546,14.177C8.92,14.6,8.312,15.045,7.721,15.513c-0.1,0.078,0.001,0.249,0.102,0.171
			c0.591-0.468,1.2-0.913,1.825-1.336C9.755,14.277,9.652,14.104,9.546,14.177z"/>
		<path fill="#FFFFFF" d="M11.007,13.989c-0.668,0.447-1.322,0.915-1.964,1.402c-0.101,0.076,0.002,0.25,0.104,0.171
			c0.639-0.487,1.294-0.955,1.962-1.403C11.217,14.09,11.113,13.919,11.007,13.989z"/>
		<path fill="#FFFFFF" d="M12.263,13.633c-0.718,0.516-1.411,1.062-2.076,1.645c-0.097,0.084,0.047,0.221,0.144,0.137
			c0.653-0.568,1.331-1.106,2.036-1.61C12.471,13.731,12.369,13.561,12.263,13.633z"/>
		<path fill="#FFFFFF" d="M13.512,13.222c-0.563,0.585-1.165,1.123-1.809,1.613c-0.103,0.078,0,0.249,0.101,0.171
			c0.661-0.499,1.277-1.048,1.852-1.647C13.745,13.267,13.601,13.129,13.512,13.222z"/>
		<path fill="#FFFFFF" d="M6.656,7.87C5.712,8.266,4.677,8.634,3.885,9.3C3.787,9.381,3.932,9.518,4.03,9.437
			C4.79,8.8,5.806,8.441,6.711,8.062C6.828,8.013,6.774,7.821,6.656,7.87z"/>
		<path fill="#FFFFFF" d="M7.222,8.063c-0.293,0.16-0.587,0.318-0.884,0.469C6.001,8.706,5.616,8.961,5.232,8.98
			C5.104,8.985,5.108,9.187,5.237,9.179c0.342-0.017,0.629-0.186,0.93-0.336c0.39-0.196,0.776-0.398,1.158-0.609
			C7.436,8.172,7.334,8.001,7.222,8.063z"/>
		<path fill="#FFFFFF" d="M8.617,8.073C7.733,8.36,6.876,8.707,6.042,9.113C5.926,9.169,6.029,9.34,6.144,9.284
			c0.819-0.397,1.661-0.738,2.527-1.02C8.794,8.224,8.737,8.032,8.617,8.073z"/>
		<path fill="#FFFFFF" d="M9.359,8.313c-0.634,0.245-1.269,0.49-1.903,0.735C7.338,9.095,7.392,9.287,7.511,9.24
			c0.634-0.245,1.268-0.489,1.902-0.734C9.533,8.459,9.479,8.268,9.359,8.313z"/>
		<path fill="#FFFFFF" d="M11.059,8.029c-0.837,0.345-1.661,0.719-2.471,1.123C8.475,9.21,8.578,9.381,8.691,9.323
			c0.794-0.396,1.601-0.765,2.423-1.102C11.231,8.174,11.177,7.98,11.059,8.029z"/>
		<path fill="#FFFFFF" d="M11.905,8.202c-0.75,0.276-1.479,0.596-2.188,0.966C9.603,9.227,9.707,9.397,9.82,9.339
			c0.693-0.361,1.406-0.677,2.14-0.947C12.079,8.349,12.025,8.157,11.905,8.202z"/>
		<path fill="#FFFFFF" d="M12.033,8.559c-0.517,0.194-1.021,0.416-1.514,0.665c-0.115,0.058-0.012,0.229,0.101,0.171
			c0.479-0.24,0.966-0.456,1.468-0.644C12.208,8.706,12.153,8.514,12.033,8.559z"/>
		<path fill="#FFFFFF" d="M12.281,8.931c-0.344,0.127-0.681,0.267-1.015,0.422c-0.114,0.054-0.013,0.225,0.104,0.171
			c0.316-0.146,0.639-0.28,0.967-0.4C12.457,9.078,12.401,8.887,12.281,8.931z"/>
		<path fill="#FFFFFF" d="M12.731,9.436c-0.343,0.139-0.686,0.277-1.03,0.416c-0.118,0.046-0.064,0.239,0.056,0.19
			c0.342-0.138,0.687-0.276,1.031-0.415C12.905,9.579,12.852,9.388,12.731,9.436z"/>
		<path fill="#FFFFFF" d="M12.854,9.987c-0.287,0.186-0.585,0.354-0.893,0.503c-0.116,0.056-0.013,0.227,0.102,0.171
			c0.309-0.148,0.606-0.317,0.894-0.503C13.065,10.088,12.964,9.917,12.854,9.987z"/>
		<path fill="#FFFFFF" d="M12.86,10.469c-0.451,0.287-0.923,0.522-1.426,0.707c-0.119,0.044-0.064,0.235,0.057,0.192
			c0.003-0.002,0.005-0.003,0.008-0.005c-0.137,0.087-0.281,0.161-0.434,0.219c-0.121,0.045-0.066,0.236,0.055,0.192
			c0.312-0.118,0.591-0.287,0.839-0.51c0.035-0.031,0.036-0.067,0.022-0.1c0.339-0.151,0.666-0.325,0.982-0.525
			C13.07,10.571,12.969,10.4,12.86,10.469z"/>
		<path fill="#FFFFFF" d="M10.595,4.279c-0.579,0.493-1.178,0.962-1.794,1.407C8.698,5.762,8.8,5.933,8.904,5.859
			c0.632-0.457,1.242-0.938,1.836-1.443C10.838,4.333,10.692,4.196,10.595,4.279z"/>
		<path fill="#FFFFFF" d="M10.478,3.911c-0.383,0.398-0.819,0.718-1.313,0.963C9.052,4.932,9.153,5.103,9.267,5.045
			c0.51-0.252,0.963-0.586,1.355-0.996C10.712,3.957,10.568,3.818,10.478,3.911z"/>
		<path fill="#FFFFFF" d="M10.32,3.567C9.962,3.833,9.603,4.097,9.245,4.36c-0.102,0.076,0,0.248,0.104,0.171
			c0.358-0.264,0.717-0.528,1.074-0.792C10.524,3.664,10.424,3.492,10.32,3.567z"/>
		<path fill="#FFFFFF" d="M9.971,3.244c-0.259,0.179-0.52,0.358-0.78,0.538C9.088,3.854,9.188,4.025,9.295,3.953
			c0.259-0.179,0.519-0.358,0.779-0.538C10.178,3.342,10.076,3.171,9.971,3.244z"/>
		<path fill="#FFFFFF" d="M9.564,2.957C9.331,3.114,9.097,3.271,8.863,3.428C8.759,3.499,8.861,3.671,8.968,3.599
			C9.2,3.441,9.432,3.285,9.665,3.128C9.771,3.057,9.67,2.886,9.564,2.957z"/>
		<path fill="#FFFFFF" d="M9.217,2.886c-0.271,0.15-0.546,0.301-0.82,0.451c-0.112,0.062-0.01,0.232,0.103,0.171
			c0.273-0.15,0.547-0.3,0.821-0.451C9.432,2.995,9.33,2.824,9.217,2.886z"/>
		<path fill="#FFFFFF" d="M8.994,2.513C8.587,2.778,8.179,3.044,7.773,3.309c-0.108,0.07-0.006,0.242,0.102,0.172
			C8.281,3.215,8.688,2.95,9.096,2.684C9.203,2.614,9.101,2.443,8.994,2.513z"/>
		<path fill="#FFFFFF" d="M8.37,2.461C7.997,2.691,7.63,2.929,7.269,3.178C7.164,3.25,7.266,3.422,7.371,3.349
			c0.361-0.248,0.728-0.487,1.101-0.717C8.582,2.566,8.48,2.394,8.37,2.461z"/>
		<path fill="#FFFFFF" d="M7.774,2.439C7.429,2.605,7.103,2.802,6.795,3.027c-0.103,0.074-0.001,0.246,0.102,0.17
			C7.205,2.973,7.532,2.776,7.876,2.61C7.991,2.554,7.888,2.383,7.774,2.439z"/>
		<path fill="#FFFFFF" d="M7.152,2.366C6.794,2.563,6.449,2.782,6.119,3.023C6.016,3.097,6.117,3.27,6.221,3.194
			c0.331-0.241,0.675-0.459,1.034-0.656C7.367,2.476,7.264,2.305,7.152,2.366z"/>
		<path fill="#FFFFFF" d="M6.429,2.417C6.023,2.636,5.637,2.89,5.273,3.174c-0.1,0.078,0.001,0.249,0.103,0.17
			c0.364-0.284,0.75-0.536,1.157-0.757C6.645,2.527,6.542,2.356,6.429,2.417z"/>
		<path fill="#FFFFFF" d="M5.48,2.586c-0.335,0.2-0.649,0.431-0.942,0.69C4.442,3.36,4.586,3.498,4.682,3.414
			c0.28-0.247,0.581-0.465,0.9-0.657C5.693,2.691,5.591,2.52,5.48,2.586z"/>
		<path fill="#FFFFFF" d="M4.491,2.956C4.376,3.059,4.286,3.183,4.224,3.324C4.172,3.441,4.347,3.537,4.399,3.419
			c0.056-0.127,0.132-0.232,0.236-0.326C4.73,3.007,4.586,2.87,4.491,2.956z"/>
	</g>
	<g>
		<path fill="#FFFFFF" d="M10.537,8.946c-0.032,0-0.058,0-0.074-0.001c0.003,0.001,0.025,0.004,0.052,0.014
			c-0.127-0.033-0.727-0.062-5.772-0.123c-0.002,0-0.004,0-0.006,0c-0.285,0-1.053,0.244-1.317,0.86
			c-0.282,0.659,0.043,1.614,0.711,2.086c0.314,0.222,1.368,0.297,2.553,0.297c1.648,0,3.55-0.146,4.068-0.249
			c0.711-0.139,1.192-0.419,1.425-0.829c0.188-0.329,0.206-0.716,0.054-1.148C11.914,8.961,10.878,8.951,10.537,8.946z
			 M11.659,10.704c-0.143,0.249-0.496,0.437-1.022,0.541l0,0c-1.168,0.229-5.688,0.362-6.161,0.049
			c-0.472-0.334-0.66-1.006-0.507-1.363c0.143-0.333,0.652-0.494,0.766-0.497c2.104,0.025,5.296,0.073,5.619,0.099
			c0.051,0.011,0.104,0.013,0.177,0.013c0.448,0.004,0.979,0.066,1.136,0.508C11.76,10.317,11.757,10.532,11.659,10.704z"/>
		<path fill="#FFFFFF" d="M15.554,9.178c-0.071-2.385-0.982-2.918-1.831-3.232c-0.396-0.144-0.751-0.157-0.993-0.157
			c0.137-1.379,0.088-3.603-1.416-4.616C9.455-0.079,3.575-0.431,2.06,0.617c-1.311,0.907-1.87,2.304-1.87,4.669v6.296
			c0,0.032-0.035,3.149,3.512,3.889c1.078,0.224,2.34,0.327,3.599,0.327c2.616,0,5.214-0.448,6.094-1.193
			C14.49,13.675,15.632,11.762,15.554,9.178z M13.008,14.148c-1.049,0.888-5.872,1.426-9.184,0.736
			c-3.048-0.636-3.037-3.181-3.036-3.296V5.286c0-2.146,0.482-3.395,1.612-4.178c0.494-0.342,1.708-0.51,3.095-0.51
			c2.031,0,4.432,0.361,5.484,1.07c1.377,0.925,1.251,3.296,1.132,4.274c-0.007,0.06-0.01,0.098-0.01,0.109
			c0,0.082,0.039,0.175,0.097,0.231c0.113,0.11,0.256,0.107,0.436,0.105c0.211-0.004,0.532-0.01,0.882,0.119
			c0.581,0.214,1.377,0.507,1.442,2.689C15.028,11.566,13.998,13.309,13.008,14.148z"/>
		<path fill="#FFFFFF" d="M4.555,5.955c0.367,0.178,1.177,0.268,2.014,0.268c0.812,0,1.65-0.084,2.135-0.253
			C9.146,5.813,9.446,5.48,9.547,5.034C9.67,4.495,9.484,3.845,9.094,3.456c-0.557-0.557-3.128-0.447-3.915-0.4
			c-0.11,0.011-1.085,0.126-1.315,0.792C3.707,4.301,3.754,5.566,4.555,5.955z M4.428,4.042C4.512,3.8,5.01,3.674,5.227,3.652
			C5.63,3.628,6.054,3.615,6.462,3.615c1.073,0,2.032,0.085,2.21,0.263c0.244,0.244,0.371,0.684,0.293,1.022
			c-0.057,0.247-0.21,0.416-0.46,0.504C7.639,5.71,5.345,5.674,4.816,5.417C4.398,5.214,4.327,4.338,4.428,4.042z"/>
	</g>
</g>
</svg>
