<?xml version="1.0" encoding="utf-8"?>
<!-- Generator: Adobe Illustrator 16.0.0, SVG Export Plug-In . SVG Version: 6.00 Build 0)  -->
<!DOCTYPE svg PUBLIC "-//W3C//DTD SVG 1.1//EN" "http://www.w3.org/Graphics/SVG/1.1/DTD/svg11.dtd">
<svg version="1.1" id="Capa_1" xmlns="http://www.w3.org/2000/svg" xmlns:xlink="http://www.w3.org/1999/xlink" x="0px" y="0px"
	 width="25.074px" height="20.899px" viewBox="0 0 25.074 20.899" enable-background="new 0 0 25.074 20.899" xml:space="preserve">
<g>
	<g>
		<path fill="#DF1241" d="M4.538,5.533C4.019,5.806,3.523,6.115,3.05,6.464C2.917,6.562,3.048,6.781,3.182,6.685
			C3.653,6.337,4.15,6.026,4.67,5.754C4.817,5.676,4.684,5.457,4.538,5.533z"/>
		<path fill="#DF1241" d="M4.538,6.218C3.94,6.556,3.375,6.941,2.839,7.372C2.711,7.476,2.897,7.651,3.026,7.55
			C3.541,7.134,4.091,6.765,4.67,6.438C4.815,6.357,4.683,6.137,4.538,6.218z"/>
		<path fill="#DF1241" d="M4.432,7.075C3.85,7.458,3.29,7.867,2.746,8.303c-0.128,0.104,0.058,0.28,0.187,0.179
			C3.458,8.06,4.001,7.665,4.564,7.294C4.702,7.203,4.571,6.984,4.432,7.075z"/>
		<path fill="#DF1241" d="M4.478,8.04C3.973,8.346,3.497,8.691,3.045,9.072C2.919,9.18,3.106,9.355,3.23,9.249
			C3.664,8.883,4.124,8.554,4.61,8.261C4.75,8.175,4.618,7.954,4.478,8.04z"/>
		<path fill="#DF1241" d="M4.502,8.838C3.978,9.134,3.478,9.466,3,9.832c-0.129,0.102,0.001,0.321,0.132,0.221
			C3.61,9.688,4.11,9.354,4.635,9.058C4.778,8.977,4.646,8.756,4.502,8.838z"/>
		<path fill="#DF1241" d="M4.582,9.488c-0.575,0.344-1.121,0.728-1.641,1.146c-0.129,0.103,0.058,0.279,0.185,0.177
			c0.503-0.404,1.033-0.772,1.588-1.102C4.855,9.624,4.724,9.405,4.582,9.488z"/>
		<path fill="#DF1241" d="M4.415,10.328c-0.414,0.256-0.813,0.535-1.196,0.835c-0.129,0.101,0.001,0.321,0.131,0.22
			c0.383-0.3,0.783-0.578,1.196-0.835C4.687,10.462,4.555,10.24,4.415,10.328z"/>
		<path fill="#DF1241" d="M4.598,11.444C4.021,11.75,3.49,12.122,3.005,12.56c-0.123,0.11,0.063,0.285,0.186,0.176
			c0.469-0.42,0.981-0.776,1.537-1.071C4.875,11.586,4.742,11.367,4.598,11.444z"/>
		<path fill="#DF1241" d="M5.587,12.641c-0.493,0.31-0.955,0.66-1.389,1.051c-0.122,0.109,0.063,0.287,0.186,0.177
			c0.416-0.374,0.859-0.709,1.335-1.006C5.858,12.773,5.728,12.553,5.587,12.641z"/>
		<path fill="#DF1241" d="M5.902,13.315c-0.503,0.332-0.974,0.705-1.414,1.117c-0.119,0.111,0.066,0.29,0.186,0.177
			c0.423-0.397,0.875-0.754,1.359-1.074C6.172,13.445,6.04,13.225,5.902,13.315z"/>
		<path fill="#DF1241" d="M6.42,14.093c-0.6,0.361-1.198,0.724-1.799,1.086c-0.141,0.084-0.009,0.305,0.132,0.219
			c0.599-0.361,1.199-0.723,1.798-1.084C6.692,14.228,6.561,14.009,6.42,14.093z"/>
		<path fill="#DF1241" d="M6.97,14.638c-0.616,0.392-1.218,0.803-1.806,1.234c-0.133,0.096-0.002,0.318,0.132,0.22
			c0.588-0.43,1.189-0.842,1.805-1.234C7.24,14.77,7.108,14.549,6.97,14.638z"/>
		<path fill="#DF1241" d="M7.075,15.323c-0.487,0.381-0.977,0.761-1.465,1.143c-0.13,0.099,0,0.321,0.13,0.22
			c0.489-0.382,0.977-0.762,1.467-1.143C7.335,15.442,7.205,15.222,7.075,15.323z"/>
		<path fill="#DF1241" d="M7.869,15.52c-0.581,0.394-1.136,0.825-1.665,1.289c-0.124,0.109,0.062,0.287,0.185,0.178
			C6.9,16.536,7.438,16.121,8,15.738C8.137,15.646,8.006,15.427,7.869,15.52z"/>
		<path fill="#DF1241" d="M11.191,17.802c-0.581,0.366-1.158,0.742-1.75,1.09c-0.144,0.085-0.011,0.304,0.131,0.22
			c0.592-0.348,1.169-0.724,1.75-1.088C11.464,17.936,11.332,17.717,11.191,17.802z"/>
		<path fill="#DF1241" d="M10.788,17.37c-0.687,0.418-1.371,0.836-2.056,1.256c-0.141,0.086,0.006,0.296,0.146,0.21
			c0.685-0.417,1.37-0.838,2.055-1.255C11.075,17.495,10.929,17.284,10.788,17.37z"/>
		<path fill="#DF1241" d="M12.798,17.712c-0.768,0.393-1.534,0.792-2.308,1.178c-0.148,0.073-0.014,0.292,0.133,0.22
			c0.772-0.385,1.538-0.786,2.306-1.179C13.077,17.855,12.945,17.635,12.798,17.712z"/>
		<path fill="#DF1241" d="M13.905,17.639c-0.824,0.4-1.627,0.834-2.417,1.297c-0.143,0.084-0.012,0.304,0.131,0.22
			c0.789-0.464,1.594-0.895,2.418-1.297C14.186,17.785,14.053,17.566,13.905,17.639z"/>
		<path fill="#DF1241" d="M15.141,17.628c-0.647,0.364-1.398,0.866-2.126,1.023c-0.162,0.036-0.09,0.282,0.069,0.247
			c0.764-0.165,1.515-0.672,2.188-1.049C15.417,17.769,15.284,17.548,15.141,17.628z"/>
		<path fill="#DF1241" d="M16.468,17.633c-0.76,0.353-1.492,0.752-2.201,1.196c-0.139,0.089-0.008,0.309,0.132,0.221
			c0.709-0.445,1.442-0.844,2.201-1.198C16.748,17.782,16.615,17.563,16.468,17.633z"/>
		<path fill="#DF1241" d="M18.152,17.349c-0.902,0.442-1.786,0.916-2.652,1.427c-0.142,0.083-0.011,0.305,0.131,0.221
			c0.867-0.51,1.75-0.986,2.653-1.429C18.432,17.495,18.301,17.275,18.152,17.349z"/>
	</g>
	<path fill="#DF1241" d="M13.938,1.509c-0.488-0.026-0.972-0.044-1.457-0.015c-0.486,0.023-0.969,0.078-1.444,0.174
		c-0.478,0.089-0.949,0.207-1.404,0.367C9.174,2.191,8.726,2.374,8.3,2.596C7.87,2.813,7.456,3.057,7.067,3.331
		C6.675,3.609,6.298,3.902,5.958,4.233C5.272,4.89,4.684,5.639,4.239,6.462c-0.224,0.41-0.417,0.835-0.565,1.279
		C3.53,8.183,3.413,8.637,3.344,9.094C3.321,9.209,3.313,9.326,3.301,9.438L3.28,9.614c0,0-0.002,0.025-0.002,0.009v0.023
		L3.275,9.691L3.271,9.783l-0.017,0.363l0.004,0.341c0.012,0.46,0.055,0.932,0.157,1.386c0.041,0.23,0.108,0.454,0.164,0.682
		c0.073,0.224,0.139,0.449,0.23,0.666c0.167,0.438,0.379,0.861,0.623,1.27c0.237,0.408,0.523,0.791,0.824,1.158
		c0.303,0.369,0.646,0.704,0.997,1.029l0.117,0.104l-0.072,0.126c-0.229,0.393-0.522,1.01-0.808,1.362l-0.218,0.259l-0.236,0.248
		l-0.246,0.235l-0.259,0.219l-0.27,0.208c-0.091,0.067-0.188,0.126-0.282,0.19c-0.094,0.064-0.197,0.114-0.295,0.173
		c-0.097,0.059-0.205,0.101-0.305,0.152c-0.104,0.05-0.208,0.089-0.316,0.125c-0.107,0.044-0.108,0.095-0.22,0.12
		c-0.111,0.029-0.221,0.102-0.334,0.119l-0.375,0.093l-0.025-0.025c0.291,0.041,0.573-0.01,0.873,0.011
		c0.301,0.021,0.465-0.056,0.767-0.06c0.151,0.002,0.43-0.132,0.581-0.142c0.15-0.005,0.3-0.014,0.449-0.028
		c0.151-0.018,0.302-0.023,0.451-0.049l0.444-0.07l0.438-0.091c0.148-0.029,0.289-0.079,0.433-0.117
		c0.144-0.038,0.287-0.079,0.424-0.138c0.14-0.052,0.279-0.101,0.415-0.155l0.398-0.192c0.137-0.058,0.254-0.146,0.38-0.22
		c0.125-0.077,0.253-0.15,0.361-0.245l0.377-0.518l0.115-0.088l0.142,0.048c0.655,0.224,1.317,0.424,2,0.532l0.508,0.09l0.515,0.048
		l0.257,0.027c0.038,0.002,0.092,0.009,0.122,0.009l0.132,0.006c0.175,0.004,0.358,0.021,0.524,0.015
		c0.676,0.008,1.37-0.05,2.042-0.165c0.676-0.115,1.34-0.291,1.979-0.525c1.279-0.473,2.461-1.201,3.428-2.146
		c0.486-0.469,0.92-0.988,1.276-1.557c0.359-0.565,0.647-1.177,0.855-1.812c0.204-0.642,0.322-1.297,0.354-1.979
		c0.029-0.659-0.027-1.338-0.169-1.992c-0.15-0.656-0.364-1.304-0.669-1.914c-0.302-0.609-0.671-1.191-1.106-1.729
		c-0.431-0.534-0.931-1.023-1.472-1.457C19.19,3.348,18.6,2.968,17.973,2.647c-0.621-0.321-1.282-0.569-1.958-0.766
		C15.337,1.694,14.64,1.572,13.938,1.509z M13.948,0.046c0.786,0.057,1.565,0.186,2.33,0.375c0.768,0.186,1.516,0.447,2.24,0.762
		c0.726,0.32,1.424,0.706,2.083,1.157c0.658,0.449,1.277,0.969,1.827,1.559c0.551,0.587,1.046,1.233,1.449,1.941
		c0.404,0.709,0.719,1.475,0.92,2.271c0.204,0.797,0.304,1.62,0.272,2.455c-0.024,0.813-0.158,1.644-0.399,2.435
		c-0.239,0.791-0.602,1.542-1.042,2.237c-0.442,0.696-0.971,1.337-1.567,1.898c-1.197,1.125-2.634,1.969-4.167,2.502
		c-0.768,0.269-1.559,0.461-2.358,0.58c-0.804,0.122-1.606,0.16-2.425,0.134c-0.208,0-0.395-0.024-0.592-0.037l-0.146-0.013
		c-0.067-0.003-0.107-0.014-0.16-0.019l-0.297-0.04l-0.599-0.084l-0.592-0.125c-0.788-0.166-1.546-0.439-2.288-0.739l0.283-0.047
		l-0.432,0.311c-0.138,0.108-0.296,0.188-0.449,0.274c-0.158,0.081-0.304,0.18-0.468,0.241l-0.48,0.207
		c-0.165,0.059-0.331,0.108-0.497,0.164c-0.163,0.058-0.33,0.096-0.5,0.137c-0.167,0.037-0.334,0.087-0.504,0.107L4.88,20.778
		l-0.511,0.054c-0.17,0.022-0.34,0.026-0.512,0.04c-0.17,0.015-0.341,0.019-0.513,0.021c-0.17,0.005-0.341,0.009-0.512,0.004
		c-0.342-0.004-0.681-0.022-1.022-0.046c-0.342-0.023-0.676-0.062-1.02-0.116L0,20.606l0.793-0.147l0.353-0.064
		c0.118-0.018,0.232-0.059,0.348-0.089c0.116-0.026,0.228-0.072,0.34-0.117c0.112-0.04,0.224-0.082,0.33-0.138
		c0.104-0.052,0.218-0.1,0.318-0.162c0.102-0.062,0.209-0.116,0.308-0.186c0.099-0.067,0.2-0.131,0.298-0.203l0.279-0.223
		l0.269-0.241l0.253-0.257l0.238-0.271l0.225-0.282c0.144-0.191,0.285-0.387,0.409-0.594c0.127-0.203,0.242-0.415,0.354-0.628
		l0.048,0.255c-0.424-0.349-0.839-0.713-1.213-1.122c-0.373-0.408-0.732-0.836-1.037-1.302c-0.312-0.46-0.589-0.946-0.815-1.459
		c-0.234-0.511-0.421-1.043-0.55-1.592c-0.138-0.55-0.208-1.106-0.24-1.676L1.297,9.676l0.018-0.407l0.003-0.1l0.004-0.055V9.091
		l0.004-0.038l0.021-0.212C1.363,8.7,1.373,8.559,1.398,8.421C1.475,7.858,1.625,7.31,1.815,6.779
		c0.194-0.531,0.422-1.05,0.717-1.531c0.291-0.479,0.62-0.937,0.984-1.361c0.372-0.419,0.775-0.806,1.203-1.16
		c0.427-0.357,0.887-0.668,1.358-0.953c0.473-0.288,0.969-0.528,1.475-0.74c1.009-0.43,2.074-0.709,3.148-0.875
		c0.536-0.087,1.081-0.122,1.622-0.148C12.864-0.015,13.412,0.01,13.948,0.046z"/>
</g>
</svg>
