<?xml version="1.0" encoding="utf-8"?>
<!-- Generator: Adobe Illustrator 16.0.0, SVG Export Plug-In . SVG Version: 6.00 Build 0)  -->
<!DOCTYPE svg PUBLIC "-//W3C//DTD SVG 1.1//EN" "http://www.w3.org/Graphics/SVG/1.1/DTD/svg11.dtd">
<svg version="1.1" id="Capa_1" xmlns="http://www.w3.org/2000/svg" xmlns:xlink="http://www.w3.org/1999/xlink" x="0px" y="0px"
	 width="15.88px" height="29.627px" viewBox="0 0 15.88 29.627" enable-background="new 0 0 15.88 29.627" xml:space="preserve">
<g>
	<g>
		<path d="M6.262,9.005C5.973,9.304,5.681,9.6,5.383,9.892c-0.267,0.263-0.533,0.585-0.874,0.746
			c-0.064,0.031-0.076,0.107-0.067,0.17c0.001,0.007,0.002,0.016,0.002,0.023c0.008,0.048,0.063,0.096,0.11,0.104
			c0.006,0.001,0.012,0.001,0.019,0.004c0.079,0.014,0.136-0.031,0.163-0.089c0.296-0.163,0.526-0.421,0.769-0.659
			c0.33-0.321,0.653-0.648,0.971-0.98C6.611,9.072,6.396,8.865,6.262,9.005z"/>
		<path d="M6.095,8.361c-0.49,0.491-0.981,0.982-1.47,1.476C4.583,9.854,4.56,9.89,4.55,9.929c-0.002,0.004,0,0.006-0.002,0.01
			C4.545,9.95,4.543,9.962,4.543,9.975s0.003,0.024,0.007,0.039c0.002,0.007,0.003,0.015,0.007,0.021
			c0,0.002,0.002,0.004,0.002,0.005c0.016,0.032,0.041,0.059,0.077,0.071c0.051,0.024,0.114,0.021,0.165-0.029
			c0.503-0.504,1.007-1.01,1.509-1.514C6.446,8.432,6.23,8.225,6.095,8.361z"/>
		<path d="M6.131,7.475c-0.364,0.334-0.728,0.668-1.09,1.002C4.794,8.703,4.354,8.962,4.292,9.313
			C4.258,9.502,4.55,9.573,4.583,9.383c0.031-0.18,0.287-0.345,0.413-0.46c0.156-0.143,0.312-0.286,0.468-0.43
			c0.293-0.271,0.588-0.541,0.883-0.812C6.489,7.551,6.271,7.343,6.131,7.475z"/>
		<path d="M6.86,6.07C5.968,6.76,5.105,7.479,4.268,8.232C4.125,8.362,4.342,8.569,4.484,8.44C5.3,7.705,6.143,7.001,7.013,6.329
			C7.164,6.212,7.012,5.953,6.86,6.07z"/>
		<path d="M6.862,5.253c-0.792,0.48-1.516,1.052-2.167,1.708c-0.138,0.138,0.08,0.345,0.216,0.207
			c0.634-0.638,1.336-1.19,2.105-1.656C7.183,5.411,7.027,5.152,6.862,5.253z"/>
		<path d="M7.094,4.137c-0.811,0.59-1.602,1.207-2.376,1.847C4.569,6.106,4.787,6.313,4.934,6.19
			C5.687,5.568,6.458,4.97,7.247,4.394C7.403,4.281,7.25,4.021,7.094,4.137z"/>
		<path d="M7.417,3.211c-0.803,0.51-1.583,1.05-2.341,1.624c-0.153,0.115,0,0.374,0.153,0.258C5.987,4.519,6.768,3.978,7.57,3.468
			C7.732,3.365,7.58,3.107,7.417,3.211z"/>
		<path d="M7.44,2.484c-0.583,0.341-1.153,0.7-1.711,1.079C5.569,3.673,5.722,3.93,5.882,3.82c0.56-0.377,1.129-0.738,1.712-1.079
			C7.761,2.645,7.606,2.387,7.44,2.484z"/>
		<path d="M1.783,11.161c-0.488,0.241-0.93,0.558-1.319,0.939c-0.136,0.137,0.08,0.343,0.218,0.208
			c0.371-0.365,0.79-0.659,1.256-0.889C2.111,11.336,1.957,11.078,1.783,11.161z"/>
		<path d="M2.063,11.697c-0.59,0.347-1.149,0.738-1.681,1.171c-0.15,0.122,0.069,0.328,0.216,0.208
			c0.51-0.416,1.052-0.789,1.62-1.121C2.384,11.857,2.231,11.599,2.063,11.697z"/>
		<path d="M2.258,12.186c-0.613,0.344-1.2,0.723-1.763,1.14c-0.156,0.114-0.002,0.373,0.153,0.258
			c0.564-0.418,1.152-0.797,1.765-1.14C2.58,12.35,2.427,12.092,2.258,12.186z"/>
		<path d="M2.338,12.921c-0.622,0.377-1.23,0.774-1.826,1.195c-0.157,0.11-0.003,0.368,0.154,0.258
			c0.594-0.42,1.203-0.819,1.826-1.196C2.658,13.079,2.504,12.82,2.338,12.921z"/>
		<path d="M2.384,13.739c-0.555,0.322-1.073,0.698-1.557,1.121c-0.146,0.128,0.072,0.335,0.215,0.208
			c0.464-0.406,0.964-0.763,1.497-1.072C2.707,13.899,2.551,13.641,2.384,13.739z"/>
		<path d="M2.506,14.26c-0.469,0.341-0.938,0.682-1.406,1.023c-0.154,0.112-0.001,0.371,0.154,0.259
			c0.469-0.342,0.937-0.685,1.407-1.024C2.817,14.403,2.664,14.146,2.506,14.26z"/>
		<path d="M3.309,14.514c-0.655,0.429-1.293,0.884-1.913,1.363c-0.152,0.116,0,0.375,0.153,0.257
			c0.621-0.479,1.258-0.934,1.913-1.363C3.624,14.664,3.472,14.407,3.309,14.514z"/>
		<path d="M3.857,15.036c-0.603,0.424-1.21,0.842-1.82,1.254c-0.16,0.107-0.007,0.364,0.153,0.257
			c0.612-0.411,1.219-0.829,1.822-1.254C4.167,15.183,4.015,14.925,3.857,15.036z"/>
		<path d="M4.725,15.076c-0.562,0.395-1.112,0.803-1.653,1.226c-0.15,0.118,0.001,0.377,0.154,0.259
			c0.541-0.424,1.091-0.832,1.653-1.227C5.036,15.224,4.884,14.966,4.725,15.076z"/>
		<path d="M5.33,15.334c-0.486,0.349-0.973,0.695-1.459,1.045c-0.157,0.109-0.004,0.368,0.154,0.256
			c0.485-0.347,0.973-0.695,1.461-1.043C5.641,15.479,5.487,15.223,5.33,15.334z"/>
		<path d="M5.857,15.859c-0.527,0.354-1.042,0.723-1.541,1.111c-0.151,0.117,0,0.375,0.153,0.257c0.5-0.388,1.014-0.758,1.542-1.109
			C6.171,16.011,6.017,15.753,5.857,15.859z"/>
		<path d="M6.833,16.164c-0.832,0.479-1.642,0.991-2.43,1.539c-0.159,0.108-0.006,0.368,0.153,0.257
			c0.788-0.549,1.599-1.061,2.432-1.538C7.155,16.326,7.001,16.067,6.833,16.164z"/>
		<path d="M6.285,17.34c-0.595,0.464-1.192,0.925-1.787,1.389c-0.15,0.117,0.002,0.376,0.153,0.259
			c0.597-0.464,1.192-0.927,1.789-1.391C6.59,17.48,6.437,17.222,6.285,17.34z"/>
		<path d="M6.36,18.365c-0.624,0.4-1.249,0.801-1.871,1.203c-0.163,0.105-0.008,0.362,0.154,0.258
			c0.623-0.401,1.247-0.803,1.87-1.205C6.676,18.519,6.523,18.261,6.36,18.365z"/>
		<path d="M6.599,19.047c-0.684,0.394-1.37,0.787-2.056,1.18c-0.167,0.098-0.012,0.354,0.155,0.258l2.055-1.18
			C6.921,19.208,6.768,18.951,6.599,19.047z"/>
		<path d="M6.382,20.08c-0.725,0.374-1.399,0.816-2.035,1.324c-0.149,0.12,0.068,0.325,0.217,0.206
			c0.613-0.489,1.272-0.911,1.97-1.272C6.706,20.25,6.551,19.992,6.382,20.08z"/>
		<path d="M5.978,21.026c-0.514,0.405-1.016,0.821-1.511,1.248c-0.146,0.127,0.071,0.335,0.217,0.208
			c0.475-0.409,0.956-0.811,1.448-1.197C6.28,21.167,6.128,20.907,5.978,21.026z"/>
		<path d="M6.195,21.968c-0.261,0.19-0.521,0.379-0.782,0.57c-0.264,0.191-0.535,0.452-0.839,0.571
			c-0.179,0.069-0.098,0.357,0.083,0.287c0.3-0.116,0.549-0.338,0.807-0.526c0.294-0.215,0.591-0.431,0.885-0.646
			C6.503,22.112,6.351,21.854,6.195,21.968z"/>
		<path d="M6.339,22.916c-0.277,0.191-0.555,0.381-0.833,0.571c-0.128,0.088-0.257,0.178-0.387,0.267
			c-0.029,0.019-0.406,0.287-0.373,0.303c-0.172-0.082-0.317,0.182-0.141,0.265c0.242,0.115,0.541-0.224,0.722-0.349
			c0.389-0.266,0.777-0.532,1.165-0.799C6.649,23.065,6.497,22.807,6.339,22.916z"/>
		<path d="M6.358,23.782c-0.655,0.417-1.26,0.899-1.813,1.443c-0.139,0.136,0.079,0.344,0.216,0.208
			c0.535-0.526,1.118-0.99,1.749-1.393C6.675,23.937,6.521,23.679,6.358,23.782z"/>
		<path d="M4.438,26.241v0.025c0,0.193,0.3,0.188,0.3-0.006v-0.025C4.738,26.042,4.438,26.049,4.438,26.241z"/>
		<path d="M6.295,24.602c-0.454,0.369-0.911,0.738-1.368,1.106c-0.148,0.122,0.069,0.328,0.218,0.208
			c0.456-0.368,0.911-0.737,1.368-1.106C6.663,24.688,6.444,24.481,6.295,24.602z"/>
		<path d="M6.407,25.257c-0.606,0.458-1.2,0.933-1.78,1.425c-0.147,0.124,0.072,0.33,0.217,0.207
			c0.56-0.475,1.132-0.933,1.718-1.375C6.714,25.397,6.561,25.14,6.407,25.257z"/>
		<path d="M6.635,25.809c-0.67,0.505-1.321,1.029-1.956,1.576c-0.146,0.127,0.072,0.332,0.218,0.208
			c0.614-0.53,1.243-1.038,1.891-1.525C6.941,25.952,6.788,25.694,6.635,25.809z"/>
		<path d="M6.58,26.526c-0.569,0.403-1.03,0.933-1.586,1.351c-0.153,0.116,0,0.374,0.154,0.258c0.555-0.419,1.019-0.949,1.588-1.351
			C6.891,26.672,6.739,26.414,6.58,26.526z"/>
		<path d="M7.03,27.354c-0.495,0.365-1.004,0.715-1.525,1.044c-0.164,0.104-0.01,0.36,0.153,0.258
			c0.521-0.33,1.031-0.678,1.528-1.044C7.339,27.498,7.187,27.24,7.03,27.354z"/>
		<path d="M7.749,27.779c-0.537,0.451-1.104,0.863-1.698,1.238c-0.164,0.104-0.01,0.361,0.154,0.258
			c0.616-0.39,1.203-0.819,1.761-1.288C8.113,27.862,7.895,27.657,7.749,27.779z"/>
		<path d="M8.731,27.979c-0.546,0.393-1.08,0.804-1.601,1.231c-0.148,0.122,0.07,0.328,0.217,0.207c0.5-0.41,1.012-0.804,1.539-1.18
			C9.041,28.126,8.888,27.867,8.731,27.979z"/>
	</g>
	<path d="M15.719,1.525l-0.017-0.101c-0.268-1.604-2.919-1.52-4.893-1.317C7.128,0.487,5.071,2.4,4.337,6.128
		C4.191,6.863,4.101,8.195,4.055,10.19c-3.24,0.09-3.323,0.135-3.419,0.187c-0.321,0.172-0.509,0.586-0.593,1.3
		c-0.146,1.254,0.055,3.905,0.978,4.726c0.244,0.215,0.802,0.437,3.034,0.46c0.074,5.201,0.271,10.328,0.274,10.379
		c0.044,1.279,0.954,2.133,2.498,2.341c0.219,0.031,0.46,0.045,0.712,0.045c1.281,0,2.835-0.38,3.065-1.114
		c0.064-0.203,0.196-0.621-0.015-11.924c1.162-0.092,3.45-0.293,3.862-0.481c0.353-0.164,0.557-0.606,0.663-1.438
		c0.124-0.975,0.138-3.669-0.567-4.245c-0.172-0.141-0.386-0.316-4.088-0.327c-0.032-1.53-0.054-2.627-0.057-2.996
		c-0.009-1.044,1.555-1.348,3.297-1.59c0.269-0.039,0.521-0.073,0.745-0.111c0.579-0.1,1.296-0.509,1.417-1.887
		C15.93,2.745,15.788,1.922,15.719,1.525z M14.967,3.435c-0.087,0.977-0.515,1.051-0.675,1.08c-0.216,0.035-0.457,0.069-0.716,0.106
		c-1.627,0.226-4.086,0.567-4.072,2.487c0.003,0.409,0.03,1.676,0.067,3.448c0.004,0.244,0.204,0.439,0.449,0.439l0,0
		c0.018,0,0.034,0,0.05,0c2.93,0,3.714,0.101,3.92,0.15c0.369,0.599,0.409,3.627,0.053,4.151c-0.31,0.081-1.662,0.257-3.943,0.426
		c-0.239,0.019-0.42,0.22-0.416,0.456c0.172,9.213,0.132,11.66,0.067,12.044c-0.26,0.284-2.008,0.771-3.374,0.345
		c-0.751-0.236-1.127-0.68-1.149-1.359c-0.002-0.054-0.209-5.464-0.28-10.8c-0.004-0.246-0.205-0.444-0.45-0.444
		c-0.001,0-0.001,0-0.001,0c-0.01,0-0.019,0-0.029,0c-2.417,0-2.821-0.219-2.85-0.235c-0.704-0.625-0.882-3.885-0.557-4.526
		c0.402-0.027,1.639-0.078,3.447-0.125c0.24-0.005,0.434-0.201,0.437-0.44c0.04-2.152,0.131-3.61,0.274-4.336
		c0.655-3.327,2.408-4.962,5.684-5.299c3.386-0.351,3.864,0.282,3.912,0.57l0.018,0.105C14.895,2.037,15.023,2.78,14.967,3.435z"/>
</g>
</svg>
