<?xml version="1.0" encoding="utf-8"?>
<!-- Generator: Adobe Illustrator 16.0.0, SVG Export Plug-In . SVG Version: 6.00 Build 0)  -->
<!DOCTYPE svg PUBLIC "-//W3C//DTD SVG 1.1//EN" "http://www.w3.org/Graphics/SVG/1.1/DTD/svg11.dtd">
<svg version="1.1" id="Capa_1" xmlns="http://www.w3.org/2000/svg" xmlns:xlink="http://www.w3.org/1999/xlink" x="0px" y="0px"
	 width="10.599px" height="19.774px" viewBox="0 0 10.599 19.774" enable-background="new 0 0 10.599 19.774" xml:space="preserve">
<g>
	<g>
		<path fill="#FFFFFF" d="M4.179,6.01c-0.193,0.2-0.389,0.397-0.586,0.593c-0.178,0.174-0.357,0.39-0.584,0.496
			C2.966,7.12,2.958,7.172,2.964,7.212c0,0.006,0.002,0.012,0.002,0.012c0.006,0.037,0.043,0.068,0.074,0.075
			c0.004,0,0.008,0.001,0.012,0.002C3.105,7.31,3.144,7.28,3.162,7.241c0.197-0.108,0.352-0.28,0.514-0.438
			c0.219-0.216,0.436-0.434,0.648-0.654C4.412,6.056,4.269,5.917,4.179,6.01z"/>
		<path fill="#FFFFFF" d="M4.068,5.58C3.74,5.909,3.412,6.237,3.085,6.564C3.058,6.577,3.044,6.601,3.037,6.628v0.005
			C3.033,6.641,3.031,6.649,3.033,6.657c0,0.008,0,0.018,0.004,0.026c0.002,0.005,0.002,0.009,0.004,0.014
			c0,0,0.002,0.003,0.004,0.005C3.052,6.723,3.07,6.739,3.093,6.749c0.035,0.016,0.076,0.015,0.111-0.021
			C3.541,6.393,3.876,6.056,4.21,5.72C4.302,5.628,4.158,5.489,4.068,5.58z"/>
		<path fill="#FFFFFF" d="M4.091,4.988C3.849,5.212,3.607,5.435,3.363,5.657C3.199,5.808,2.906,5.98,2.865,6.216
			C2.843,6.341,3.037,6.39,3.06,6.262c0.021-0.119,0.191-0.229,0.273-0.306c0.105-0.097,0.209-0.191,0.312-0.287
			c0.197-0.181,0.393-0.361,0.59-0.541C4.332,5.039,4.187,4.901,4.091,4.988z"/>
		<path fill="#FFFFFF" d="M4.578,4.052c-0.594,0.461-1.17,0.939-1.729,1.443C2.753,5.581,2.898,5.72,2.992,5.634
			c0.547-0.49,1.107-0.962,1.689-1.41C4.781,4.146,4.679,3.974,4.578,4.052z"/>
		<path fill="#FFFFFF" d="M4.58,3.505C4.05,3.826,3.568,4.208,3.132,4.647c-0.092,0.09,0.055,0.229,0.145,0.137
			c0.424-0.426,0.893-0.795,1.406-1.105C4.794,3.61,4.691,3.438,4.58,3.505z"/>
		<path fill="#FFFFFF" d="M4.734,2.76C4.193,3.155,3.664,3.565,3.15,3.993C3.048,4.075,3.195,4.214,3.292,4.132
			c0.502-0.416,1.02-0.814,1.545-1.199C4.939,2.857,4.839,2.685,4.734,2.76z"/>
		<path fill="#FFFFFF" d="M4.951,2.143c-0.537,0.34-1.057,0.701-1.562,1.084c-0.102,0.077,0,0.251,0.102,0.172
			c0.506-0.383,1.027-0.743,1.562-1.083C5.162,2.247,5.058,2.073,4.951,2.143z"/>
		<path fill="#FFFFFF" d="M4.964,1.657c-0.389,0.229-0.77,0.469-1.143,0.722C3.716,2.451,3.82,2.623,3.925,2.55
			C4.298,2.297,4.679,2.056,5.07,1.829C5.179,1.764,5.078,1.593,4.964,1.657z"/>
		<path fill="#FFFFFF" d="M1.191,7.449C0.863,7.61,0.57,7.821,0.31,8.075c-0.092,0.093,0.053,0.229,0.145,0.14
			c0.246-0.245,0.527-0.44,0.838-0.593C1.41,7.565,1.306,7.395,1.191,7.449z"/>
		<path fill="#FFFFFF" d="M1.378,7.808c-0.395,0.23-0.77,0.491-1.123,0.781C0.156,8.67,0.3,8.808,0.398,8.727
			C0.742,8.45,1.101,8.201,1.48,7.979C1.591,7.913,1.488,7.741,1.378,7.808z"/>
		<path fill="#FFFFFF" d="M1.507,8.134C1.097,8.362,0.705,8.616,0.33,8.895c-0.104,0.075,0,0.248,0.104,0.171
			C0.81,8.788,1.201,8.534,1.609,8.305C1.722,8.242,1.619,8.071,1.507,8.134z"/>
		<path fill="#FFFFFF" d="M1.56,8.624C1.146,8.875,0.738,9.142,0.341,9.422C0.236,9.496,0.339,9.668,0.445,9.594
			c0.396-0.28,0.803-0.547,1.219-0.798C1.773,8.729,1.671,8.556,1.56,8.624z"/>
		<path fill="#FFFFFF" d="M1.591,9.169C1.22,9.385,0.873,9.636,0.55,9.918c-0.096,0.087,0.049,0.224,0.146,0.138
			c0.309-0.27,0.641-0.508,0.998-0.714C1.806,9.276,1.703,9.104,1.591,9.169z"/>
		<path fill="#FFFFFF" d="M1.673,9.518C1.359,9.745,1.046,9.974,0.734,10.2c-0.104,0.075-0.002,0.248,0.102,0.173
			C1.15,10.144,1.462,9.917,1.775,9.69C1.878,9.614,1.777,9.44,1.673,9.518z"/>
		<path fill="#FFFFFF" d="M2.208,9.687c-0.438,0.287-0.863,0.59-1.277,0.91c-0.102,0.077,0,0.25,0.104,0.172
			c0.412-0.319,0.84-0.624,1.275-0.91C2.417,9.788,2.316,9.616,2.208,9.687z"/>
		<path fill="#FFFFFF" d="M2.574,10.036c-0.402,0.283-0.807,0.562-1.215,0.836c-0.105,0.072-0.004,0.244,0.104,0.172
			c0.406-0.273,0.812-0.553,1.215-0.838C2.783,10.134,2.679,9.961,2.574,10.036z"/>
		<path fill="#FFFFFF" d="M3.154,10.063c-0.375,0.264-0.744,0.535-1.105,0.818c-0.1,0.078,0.002,0.25,0.104,0.172
			c0.361-0.283,0.729-0.555,1.104-0.819C3.361,10.161,3.259,9.987,3.154,10.063z"/>
		<path fill="#FFFFFF" d="M3.556,10.234c-0.324,0.232-0.648,0.464-0.975,0.697c-0.104,0.074,0,0.246,0.104,0.171
			c0.324-0.231,0.65-0.464,0.975-0.696C3.765,10.332,3.662,10.161,3.556,10.234z"/>
		<path fill="#FFFFFF" d="M3.908,10.586c-0.352,0.235-0.693,0.481-1.027,0.741c-0.102,0.078,0,0.25,0.102,0.172
			c0.334-0.26,0.678-0.507,1.029-0.742C4.119,10.687,4.015,10.515,3.908,10.586z"/>
		<path fill="#FFFFFF" d="M4.562,10.789c-0.557,0.319-1.098,0.661-1.623,1.026c-0.107,0.073-0.004,0.246,0.102,0.172
			c0.525-0.366,1.066-0.709,1.623-1.027C4.775,10.896,4.673,10.724,4.562,10.789z"/>
		<path fill="#FFFFFF" d="M4.195,11.573c-0.398,0.31-0.795,0.618-1.193,0.928c-0.1,0.076,0.002,0.251,0.104,0.171
			c0.396-0.309,0.795-0.617,1.191-0.927C4.398,11.667,4.294,11.494,4.195,11.573z"/>
		<path fill="#FFFFFF" d="M4.246,12.258c-0.418,0.269-0.834,0.535-1.25,0.803c-0.107,0.069-0.006,0.242,0.104,0.172
			c0.414-0.269,0.832-0.536,1.248-0.803C4.457,12.36,4.353,12.187,4.246,12.258z"/>
		<path fill="#FFFFFF" d="M4.404,12.712c-0.457,0.264-0.914,0.525-1.371,0.789c-0.113,0.063-0.01,0.235,0.102,0.172l1.373-0.789
			C4.619,12.82,4.517,12.648,4.404,12.712z"/>
		<path fill="#FFFFFF" d="M4.257,13.401c-0.482,0.251-0.932,0.546-1.355,0.885c-0.102,0.079,0.045,0.217,0.145,0.137
			c0.41-0.325,0.85-0.607,1.314-0.848C4.474,13.515,4.373,13.345,4.257,13.401z"/>
		<path fill="#FFFFFF" d="M3.99,14.035c-0.344,0.27-0.68,0.548-1.01,0.833c-0.096,0.084,0.049,0.223,0.145,0.137
			c0.318-0.271,0.639-0.54,0.967-0.799C4.191,14.128,4.089,13.954,3.99,14.035z"/>
		<path fill="#FFFFFF" d="M4.134,14.663c-0.174,0.125-0.348,0.252-0.521,0.379c-0.176,0.128-0.357,0.302-0.561,0.382
			c-0.119,0.046-0.064,0.239,0.055,0.192c0.201-0.078,0.367-0.227,0.539-0.351c0.197-0.144,0.393-0.288,0.592-0.433
			C4.339,14.758,4.24,14.586,4.134,14.663z"/>
		<path fill="#FFFFFF" d="M4.23,15.295c-0.186,0.128-0.371,0.255-0.555,0.382c-0.088,0.059-0.172,0.119-0.26,0.178
			c-0.018,0.013-0.27,0.191-0.248,0.201c-0.115-0.054-0.211,0.121-0.094,0.178c0.16,0.076,0.361-0.148,0.482-0.232
			c0.258-0.179,0.518-0.355,0.775-0.534C4.437,15.395,4.335,15.223,4.23,15.295z"/>
		<path fill="#FFFFFF" d="M4.244,15.874c-0.438,0.277-0.842,0.6-1.211,0.963c-0.092,0.09,0.053,0.229,0.145,0.139
			c0.357-0.352,0.746-0.662,1.168-0.93C4.455,15.976,4.351,15.805,4.244,15.874z"/>
		<path fill="#FFFFFF" d="M2.962,17.515v0.018c0,0.129,0.199,0.125,0.199-0.006v-0.016C3.162,17.382,2.962,17.386,2.962,17.515z"/>
		<path fill="#FFFFFF" d="M4.203,16.42c-0.305,0.247-0.609,0.493-0.914,0.739c-0.1,0.08,0.047,0.219,0.145,0.139
			c0.305-0.246,0.609-0.492,0.914-0.739C4.445,16.478,4.3,16.34,4.203,16.42z"/>
		<path fill="#FFFFFF" d="M4.275,16.857c-0.404,0.306-0.801,0.622-1.186,0.951c-0.102,0.082,0.045,0.221,0.143,0.138
			c0.373-0.316,0.756-0.622,1.146-0.917C4.48,16.952,4.378,16.778,4.275,16.857z"/>
		<path fill="#FFFFFF" d="M4.427,17.226c-0.445,0.337-0.881,0.688-1.305,1.051c-0.098,0.086,0.047,0.223,0.146,0.14
			c0.408-0.353,0.828-0.692,1.262-1.019C4.632,17.321,4.531,17.149,4.427,17.226z"/>
		<path fill="#FFFFFF" d="M4.392,17.704c-0.379,0.27-0.688,0.623-1.061,0.902c-0.102,0.078,0,0.25,0.104,0.172
			c0.371-0.279,0.68-0.633,1.061-0.901C4.599,17.803,4.498,17.63,4.392,17.704z"/>
		<path fill="#FFFFFF" d="M4.691,18.258c-0.33,0.243-0.67,0.476-1.018,0.696c-0.109,0.068-0.006,0.24,0.102,0.172
			c0.35-0.22,0.689-0.453,1.021-0.697C4.898,18.354,4.796,18.181,4.691,18.258z"/>
		<path fill="#FFFFFF" d="M5.171,18.542c-0.359,0.301-0.736,0.574-1.135,0.826c-0.107,0.069-0.006,0.241,0.105,0.172
			c0.41-0.261,0.801-0.547,1.174-0.86C5.416,18.597,5.269,18.458,5.171,18.542z"/>
		<path fill="#FFFFFF" d="M5.828,18.674c-0.365,0.263-0.723,0.537-1.068,0.822c-0.1,0.081,0.045,0.219,0.143,0.139
			c0.336-0.273,0.678-0.535,1.027-0.788C6.035,18.771,5.933,18.6,5.828,18.674z"/>
	</g>
	<path fill="#FFFFFF" d="M10.492,1.019L10.48,0.95c-0.178-1.07-1.949-1.013-3.264-0.878C4.757,0.325,3.384,1.601,2.894,4.09
		C2.798,4.581,2.736,5.47,2.707,6.8C0.542,6.861,0.488,6.893,0.423,6.926C0.21,7.04,0.083,7.317,0.029,7.794
		c-0.098,0.836,0.037,2.605,0.652,3.153c0.162,0.144,0.535,0.292,2.025,0.308c0.049,3.472,0.182,6.894,0.182,6.928
		c0.031,0.853,0.637,1.422,1.668,1.562c0.146,0.02,0.307,0.029,0.477,0.029c0.855,0,1.893-0.253,2.045-0.743
		c0.043-0.135,0.131-0.416-0.01-7.96c0.775-0.061,2.303-0.194,2.576-0.32c0.236-0.108,0.373-0.405,0.443-0.96
		c0.082-0.651,0.094-2.448-0.379-2.833C9.593,6.863,9.451,6.747,6.98,6.738C6.96,5.718,6.945,4.986,6.943,4.74
		C6.937,4.043,7.982,3.841,9.144,3.679C9.324,3.653,9.492,3.63,9.64,3.604c0.387-0.066,0.865-0.341,0.947-1.259
		C10.632,1.831,10.537,1.282,10.492,1.019z M9.988,2.293c-0.057,0.652-0.342,0.701-0.449,0.72C9.394,3.037,9.234,3.06,9.06,3.084
		c-1.086,0.15-2.729,0.38-2.719,1.659c0.004,0.273,0.021,1.119,0.045,2.302C6.39,7.208,6.523,7.339,6.687,7.339l0,0
		c0.012,0,0.021,0,0.033,0c1.957,0,2.479,0.067,2.615,0.101c0.246,0.399,0.275,2.421,0.037,2.771
		c-0.207,0.054-1.109,0.171-2.633,0.284C6.582,10.507,6.46,10.642,6.462,10.8c0.115,6.147,0.088,7.782,0.045,8.038
		c-0.174,0.189-1.34,0.516-2.252,0.229c-0.5-0.156-0.75-0.454-0.768-0.906c0-0.037-0.139-3.646-0.186-7.209
		c-0.002-0.164-0.137-0.297-0.301-0.297l0,0c-0.006,0-0.014,0-0.018,0c-1.615,0-1.885-0.146-1.904-0.156
		c-0.469-0.418-0.588-2.594-0.373-3.021c0.27-0.018,1.096-0.052,2.303-0.083C3.169,7.39,3.298,7.26,3.3,7.099
		c0.025-1.436,0.088-2.409,0.184-2.893c0.438-2.223,1.607-3.311,3.793-3.537c2.26-0.233,2.578,0.189,2.611,0.381L9.9,1.12
		C9.941,1.358,10.027,1.856,9.988,2.293z"/>
</g>
</svg>
