<?xml version="1.0" encoding="utf-8"?>
<!-- Generator: Adobe Illustrator 16.0.0, SVG Export Plug-In . SVG Version: 6.00 Build 0)  -->
<!DOCTYPE svg PUBLIC "-//W3C//DTD SVG 1.1//EN" "http://www.w3.org/Graphics/SVG/1.1/DTD/svg11.dtd">
<svg version="1.1" id="Capa_1" xmlns="http://www.w3.org/2000/svg" xmlns:xlink="http://www.w3.org/1999/xlink" x="0px" y="0px"
	 width="33.575px" height="51.114px" viewBox="0 0 33.575 51.114" enable-background="new 0 0 33.575 51.114" xml:space="preserve">
<g>
	<path fill="#FFFFFF" d="M3,27c0.793,0,1.584-0.313,2.174-0.932l9.922-10.436c1.097-1.152,1.103-2.961,0.013-4.121L5.187,0.947
		C4.053-0.262,2.155-0.32,0.947,0.814c-1.208,1.133-1.268,3.031-0.133,4.24l7.981,8.498l-7.969,8.381
		c-1.142,1.201-1.094,3.1,0.106,4.24C1.514,26.727,2.257,27,3,27z"/>
	<g>
		
			<rect x="-2.048" y="23.032" transform="matrix(-0.6582 0.7528 -0.7528 -0.6582 49.5666 26.5611)" fill="#FFFFFF" width="41.603" height="2.999"/>
		
			<rect x="2.174" y="37.86" transform="matrix(-0.6582 0.7528 -0.7528 -0.6582 56.9504 52.8625)" fill="#FFFFFF" width="28.603" height="2.999"/>
	</g>
</g>
</svg>
