<?xml version="1.0" encoding="utf-8"?>
<!-- Generator: Adobe Illustrator 16.0.0, SVG Export Plug-In . SVG Version: 6.00 Build 0)  -->
<!DOCTYPE svg PUBLIC "-//W3C//DTD SVG 1.1//EN" "http://www.w3.org/Graphics/SVG/1.1/DTD/svg11.dtd">
<svg version="1.1" id="Capa_1" xmlns="http://www.w3.org/2000/svg" xmlns:xlink="http://www.w3.org/1999/xlink" x="0px" y="0px"
	 width="24.588px" height="29.455px" viewBox="0 0 24.588 29.455" enable-background="new 0 0 24.588 29.455" xml:space="preserve">
<g>
	<g>
		<path d="M3.825,4.853C2.718,5.319,1.719,5.949,0.822,6.746C0.68,6.875,0.895,7.079,1.037,6.952
			c0.856-0.763,1.813-1.367,2.87-1.814C4.081,5.064,4.001,4.778,3.825,4.853z"/>
		<path d="M3.441,5.853C2.503,6.261,1.647,6.799,0.865,7.46C0.721,7.583,0.936,7.788,1.08,7.666c0.761-0.645,1.6-1.161,2.513-1.559
			C3.769,6.031,3.615,5.777,3.441,5.853z"/>
		<path d="M3.24,6.589C2.388,7.07,1.567,7.603,0.779,8.186c-0.152,0.114,0,0.37,0.153,0.256c0.788-0.583,1.607-1.116,2.46-1.598
			C3.56,6.749,3.407,6.495,3.24,6.589z"/>
		<path d="M3.043,7.505C2.276,7.895,1.529,8.318,0.803,8.78C0.642,8.882,0.793,9.138,0.955,9.035
			c0.727-0.462,1.474-0.888,2.242-1.276C3.366,7.672,3.212,7.418,3.043,7.505z"/>
		<path d="M2.623,8.367C2.269,8.524,1.936,8.715,1.613,8.93c-0.301,0.201-0.591,0.459-0.92,0.619
			C0.651,9.541,0.604,9.548,0.565,9.582L0.476,9.661C0.364,9.757,0.488,9.955,0.624,9.905c0.383-0.139,0.688-0.411,1.022-0.639
			c0.36-0.247,0.73-0.469,1.129-0.644C2.95,8.547,2.795,8.292,2.623,8.367z"/>
		<path d="M2.625,9.362c-0.741,0.364-1.45,0.784-2.125,1.263c-0.156,0.108-0.005,0.363,0.152,0.253
			c0.675-0.476,1.383-0.896,2.125-1.261C2.948,9.532,2.795,9.278,2.625,9.362z"/>
		<path d="M2.674,10.274c-0.373,0.171-0.733,0.364-1.076,0.59c-0.346,0.227-0.658,0.508-1.023,0.706
			c-0.169,0.091-0.016,0.346,0.152,0.255c0.366-0.198,0.677-0.479,1.024-0.707c0.343-0.225,0.702-0.418,1.075-0.589
			C2.998,10.45,2.845,10.195,2.674,10.274z"/>
		<path d="M2.548,11.31c-0.674,0.337-1.317,0.724-1.932,1.161c-0.155,0.11-0.002,0.366,0.153,0.255
			c0.613-0.438,1.256-0.824,1.931-1.161C2.871,11.479,2.718,11.225,2.548,11.31z"/>
		<path d="M2.199,12.295c-0.601,0.315-1.174,0.674-1.722,1.077c-0.153,0.112-0.002,0.368,0.153,0.256
			c0.544-0.404,1.119-0.763,1.722-1.078C2.522,12.461,2.368,12.208,2.199,12.295z"/>
		<path d="M2.199,13.088c-0.691,0.391-1.346,0.837-1.965,1.335c-0.148,0.12,0.067,0.324,0.215,0.206
			c0.597-0.482,1.233-0.909,1.903-1.285C2.52,13.248,2.367,12.994,2.199,13.088z"/>
		<path d="M2.077,14.079c-0.674,0.443-1.322,0.917-1.951,1.421c-0.148,0.12,0.067,0.324,0.215,0.206
			c0.607-0.488,1.237-0.944,1.889-1.373C2.388,14.229,2.238,13.975,2.077,14.079z"/>
		<path d="M2.13,15.196c-0.584,0.353-1.136,0.753-1.658,1.193c-0.145,0.124,0.071,0.327,0.215,0.206
			c0.501-0.425,1.034-0.805,1.595-1.146C2.445,15.352,2.292,15.096,2.13,15.196z"/>
		<path d="M2.159,16.119c-0.607,0.342-1.186,0.728-1.738,1.15c-0.149,0.116,0.001,0.372,0.153,0.256
			c0.553-0.425,1.131-0.809,1.738-1.152C2.477,16.279,2.324,16.023,2.159,16.119z"/>
		<path d="M2.25,16.873c-0.665,0.396-1.296,0.839-1.898,1.324c-0.149,0.119,0.067,0.325,0.214,0.206
			c0.583-0.469,1.196-0.893,1.837-1.276C2.566,17.029,2.415,16.774,2.25,16.873z"/>
		<path d="M2.056,17.844c-0.478,0.296-0.939,0.619-1.383,0.966c-0.148,0.116,0.002,0.373,0.151,0.255
			c0.444-0.349,0.905-0.67,1.383-0.967C2.372,17.998,2.218,17.743,2.056,17.844z"/>
		<path d="M2.269,19.135c-0.667,0.354-1.281,0.784-1.843,1.288c-0.141,0.13,0.074,0.333,0.215,0.206
			c0.543-0.485,1.136-0.899,1.779-1.24C2.589,19.3,2.436,19.045,2.269,19.135z"/>
		<path d="M2.034,20.519c-0.57,0.359-1.104,0.766-1.606,1.216c-0.141,0.128,0.074,0.333,0.215,0.205
			c0.481-0.433,0.995-0.82,1.545-1.165C2.348,20.672,2.197,20.417,2.034,20.519z"/>
		<path d="M2.399,21.3c-0.582,0.384-1.127,0.815-1.635,1.292c-0.138,0.131,0.076,0.336,0.214,0.206
			c0.489-0.459,1.013-0.873,1.572-1.243C2.711,21.45,2.558,21.194,2.399,21.3z"/>
		<path d="M2.998,22.2c-0.693,0.418-1.387,0.837-2.081,1.255c-0.163,0.098-0.011,0.354,0.153,0.255
			c0.692-0.419,1.387-0.837,2.081-1.254C3.313,22.355,3.161,22.102,2.998,22.2z"/>
		<path d="M3.634,22.83c-0.712,0.453-1.408,0.929-2.09,1.429c-0.153,0.109-0.002,0.367,0.153,0.253
			c0.68-0.497,1.376-0.973,2.087-1.427C3.947,22.981,3.794,22.727,3.634,22.83z"/>
		<path d="M3.756,23.622c-0.564,0.441-1.131,0.882-1.695,1.322c-0.15,0.115,0,0.372,0.151,0.256c0.565-0.442,1.13-0.882,1.697-1.323
			C4.057,23.761,3.907,23.506,3.756,23.622z"/>
		<path d="M4.675,23.85c-0.673,0.457-1.315,0.955-1.927,1.492c-0.144,0.127,0.072,0.332,0.214,0.205c0.592-0.52,1.213-1,1.865-1.442
			C4.985,23.998,4.834,23.742,4.675,23.85z"/>
		<path d="M5.408,24.259c-0.71,0.512-1.42,1.023-2.13,1.537c-0.153,0.11-0.002,0.366,0.153,0.254c0.71-0.512,1.42-1.025,2.13-1.536
			C5.714,24.402,5.563,24.146,5.408,24.259z"/>
		<path d="M6.475,24.632c-0.347,0.242-0.692,0.485-1.039,0.729l-0.484,0.341c-0.15,0.106-0.358,0.324-0.55,0.338
			c-0.191,0.013-0.185,0.311,0.005,0.297c0.358-0.025,0.69-0.374,0.974-0.573c0.415-0.293,0.831-0.585,1.245-0.878
			C6.781,24.777,6.629,24.521,6.475,24.632z"/>
		<path d="M7.741,24.835c-0.819,0.424-1.604,0.903-2.356,1.437c-0.154,0.11-0.002,0.366,0.153,0.255
			c0.751-0.533,1.536-1.013,2.355-1.436C8.062,25.002,7.909,24.747,7.741,24.835z"/>
		<path d="M8.519,25.113c-0.672,0.422-1.339,0.857-2.024,1.26c-0.166,0.098-0.013,0.352,0.152,0.255
			c0.685-0.402,1.353-0.837,2.025-1.26C8.834,25.267,8.682,25.012,8.519,25.113z"/>
		<path d="M10.31,25.003c-0.825,0.43-1.647,0.858-2.472,1.288c-0.17,0.088-0.017,0.343,0.153,0.256
			c0.823-0.431,1.647-0.859,2.47-1.289C10.631,25.17,10.479,24.915,10.31,25.003z"/>
		<path d="M11.758,25.007c-0.889,0.456-1.776,0.918-2.67,1.363c-0.171,0.086-0.017,0.339,0.153,0.256
			c0.895-0.446,1.779-0.909,2.668-1.364C12.079,25.174,11.927,24.92,11.758,25.007z"/>
		<path d="M13.038,24.923c-0.953,0.464-1.883,0.965-2.796,1.502c-0.165,0.096-0.014,0.352,0.152,0.254
			c0.913-0.536,1.845-1.036,2.797-1.501C13.362,25.093,13.209,24.84,13.038,24.923z"/>
		<path d="M14.468,24.912c-0.749,0.42-1.617,1.001-2.46,1.184c-0.187,0.04-0.104,0.325,0.081,0.286
			c0.883-0.191,1.752-0.777,2.532-1.215C14.787,25.074,14.634,24.818,14.468,24.912z"/>
		<path d="M16.003,24.916c-0.878,0.409-1.727,0.87-2.546,1.385c-0.162,0.103-0.01,0.357,0.153,0.256
			c0.82-0.516,1.668-0.977,2.546-1.387C16.328,25.09,16.174,24.836,16.003,24.916z"/>
		<path d="M17.952,24.586c-1.044,0.512-2.066,1.063-3.068,1.652c-0.165,0.098-0.014,0.353,0.152,0.256
			c1.002-0.591,2.024-1.141,3.069-1.652C18.277,24.757,18.124,24.502,17.952,24.586z"/>
		<path d="M19.506,24.555c-0.959,0.553-1.919,1.105-2.879,1.657c-0.165,0.096-0.012,0.352,0.153,0.256
			c0.959-0.552,1.919-1.105,2.879-1.658C19.824,24.714,19.67,24.459,19.506,24.555z"/>
		<path d="M21.691,24.274c-1.028,0.604-2.078,1.163-3.151,1.685c-0.172,0.082-0.019,0.337,0.153,0.253
			c1.072-0.519,2.122-1.079,3.151-1.684C22.009,24.432,21.856,24.178,21.691,24.274z"/>
		<path d="M3.785,4.063C2.845,4.487,1.934,4.963,1.05,5.492C0.887,5.591,1.039,5.845,1.202,5.747
			c0.885-0.528,1.796-1.004,2.734-1.429C4.11,4.241,3.957,3.985,3.785,4.063z"/>
	</g>
	<path d="M19.715,5.369C19.348,5.443,18.678,5.881,18.773,7c0.052,0.614,0.48,1.103,1.117,1.274
		c0.155,0.042,0.316,0.063,0.473,0.063c0.528,0,1.029-0.232,1.312-0.635c0.349-0.503,0.354-1.16,0.008-1.678
		C21.287,5.432,20.549,5.186,19.715,5.369z M20.944,7.191c-0.171,0.246-0.542,0.299-0.823,0.223c-0.16-0.043-0.435-0.163-0.46-0.488
		c-0.049-0.571,0.198-0.674,0.239-0.687c0.121-0.027,0.236-0.04,0.344-0.04c0.311,0,0.557,0.109,0.698,0.32
		C21.082,6.729,21.083,6.993,20.944,7.191z"/>
	<path d="M13.244,7.279c-0.495-0.072-5.784-0.681-7.864,5.559c-0.91,2.73-0.372,5.354,1.475,7.203
		c1.468,1.468,3.529,2.255,5.676,2.255c0.938,0,1.889-0.149,2.817-0.46c2.776-0.925,3.919-2.869,4.389-4.339
		c0.809-2.529,0.185-5.293-0.852-6.717C17.265,8.555,15.367,7.375,13.244,7.279z M18.889,17.227
		c-0.406,1.271-1.401,2.959-3.823,3.766c-2.692,0.896-5.738,0.264-7.582-1.58c-1.624-1.624-2.07-3.859-1.26-6.292
		c1.492-4.473,4.698-5.012,6.155-5.012c0.422,0,0.697,0.045,0.743,0.054c0.021,0.002,0.041,0.005,0.061,0.006
		c1.873,0.078,3.504,1.104,4.983,3.136C19.048,12.516,19.601,15.003,18.889,17.227z"/>
	<path d="M24.431,7.404c-0.363-3.706-2.194-4.354-3.18-4.703l-0.086-0.03C20.168,2.316,7.838,2.587,5.378,2.646
		C0.849,2.734,0.6,6.249,0.586,6.591C0.538,7.206-0.376,19.068,0.178,22.387c0.594,3.575,4.2,4.407,4.353,4.442
		c0.026,0.005,0.055,0.008,0.081,0.01c0.29,0.008,4.068,0.124,8.012,0.124c3.436,0,6.997-0.088,8.486-0.411
		c3.431-0.746,3.338-5.241,3.324-5.622C24.455,20.326,24.773,10.881,24.431,7.404z M23.544,20.952
		c0.002,0.04,0.149,4.128-2.624,4.729c-2.999,0.652-15.378,0.294-16.234,0.269c-0.352-0.09-3.161-0.896-3.631-3.71
		C0.517,19.013,1.465,6.775,1.475,6.651c0-0.011,0.001-0.023,0.001-0.034c0-0.123,0.044-3.005,3.921-3.082
		c5.579-0.131,14.713-0.254,15.467-0.026l0.089,0.031c0.91,0.323,2.283,0.809,2.59,3.95c0.34,3.457,0.002,13.325,0,13.426
		C23.544,20.928,23.544,20.938,23.544,20.952z"/>
</g>
</svg>
