<?xml version="1.0" encoding="utf-8"?>
<!-- Generator: Adobe Illustrator 16.0.0, SVG Export Plug-In . SVG Version: 6.00 Build 0)  -->
<!DOCTYPE svg PUBLIC "-//W3C//DTD SVG 1.1//EN" "http://www.w3.org/Graphics/SVG/1.1/DTD/svg11.dtd">
<svg version="1.1" id="Capa_1" xmlns="http://www.w3.org/2000/svg" xmlns:xlink="http://www.w3.org/1999/xlink" x="0px" y="0px"
	 width="16.235px" height="16.159px" viewBox="0 0 16.235 16.159" enable-background="new 0 0 16.235 16.159" xml:space="preserve">
<g>
	<g>
		<path fill="#FFFFFF" d="M2.525,1.56c-0.73,0.308-1.391,0.724-1.982,1.251C0.449,2.895,0.591,3.03,0.685,2.947
			C1.25,2.443,1.882,2.042,2.579,1.749C2.694,1.7,2.642,1.511,2.525,1.56z"/>
		<path fill="#FFFFFF" d="M2.272,2.22c-0.62,0.271-1.186,0.625-1.702,1.062C0.476,3.364,0.618,3.498,0.713,3.417
			c0.502-0.424,1.057-0.766,1.66-1.029C2.488,2.338,2.387,2.17,2.272,2.22z"/>
		<path fill="#FFFFFF" d="M2.139,2.707C1.577,3.024,1.034,3.375,0.514,3.761c-0.1,0.074,0,0.243,0.101,0.169
			C1.136,3.543,1.676,3.193,2.24,2.874C2.35,2.812,2.249,2.644,2.139,2.707z"/>
		<path fill="#FFFFFF" d="M2.009,3.31c-0.506,0.258-1,0.538-1.479,0.843C0.424,4.22,0.523,4.389,0.63,4.322
			c0.48-0.305,0.974-0.586,1.48-0.843C2.222,3.421,2.121,3.253,2.009,3.31z"/>
		<path fill="#FFFFFF" d="M1.731,3.881C1.498,3.984,1.278,4.11,1.065,4.252C0.866,4.385,0.675,4.554,0.458,4.661
			C0.43,4.655,0.399,4.66,0.373,4.683l-0.06,0.052C0.24,4.797,0.322,4.929,0.412,4.896c0.252-0.092,0.455-0.271,0.675-0.422
			c0.237-0.163,0.482-0.309,0.746-0.425C1.948,3.999,1.845,3.831,1.731,3.881z"/>
		<path fill="#FFFFFF" d="M1.733,4.538c-0.49,0.24-0.958,0.518-1.404,0.833c-0.103,0.071-0.003,0.241,0.1,0.168
			c0.446-0.314,0.913-0.592,1.403-0.833C1.946,4.65,1.845,4.482,1.733,4.538z"/>
		<path fill="#FFFFFF" d="M1.765,5.139C1.519,5.252,1.281,5.381,1.055,5.53C0.827,5.679,0.621,5.864,0.379,5.995
			c-0.111,0.061-0.01,0.229,0.101,0.169c0.242-0.131,0.447-0.316,0.677-0.467C1.382,5.548,1.619,5.42,1.866,5.308
			C1.979,5.255,1.878,5.087,1.765,5.139z"/>
		<path fill="#FFFFFF" d="M1.682,5.823c-0.445,0.223-0.87,0.479-1.275,0.767C0.305,6.663,0.405,6.831,0.508,6.757
			c0.405-0.289,0.83-0.543,1.275-0.766C1.896,5.935,1.795,5.768,1.682,5.823z"/>
		<path fill="#FFFFFF" d="M1.452,6.473C1.055,6.682,0.677,6.918,0.315,7.185C0.214,7.259,0.313,7.428,0.417,7.354
			C0.776,7.087,1.155,6.85,1.553,6.642C1.665,6.583,1.563,6.416,1.452,6.473z"/>
		<path fill="#FFFFFF" d="M1.452,6.998C0.996,7.254,0.563,7.55,0.154,7.878C0.056,7.958,0.198,8.092,0.296,8.014
			c0.395-0.317,0.814-0.6,1.257-0.849C1.664,7.103,1.562,6.935,1.452,6.998z"/>
		<path fill="#FFFFFF" d="M1.372,7.651C0.926,7.944,0.499,8.257,0.083,8.59c-0.098,0.079,0.044,0.213,0.142,0.136
			C0.626,8.404,1.042,8.102,1.473,7.82C1.577,7.75,1.478,7.583,1.372,7.651z"/>
		<path fill="#FFFFFF" d="M1.406,8.389c-0.386,0.232-0.75,0.497-1.095,0.789C0.216,9.259,0.358,9.394,0.454,9.313
			c0.331-0.28,0.683-0.531,1.053-0.756C1.614,8.493,1.513,8.324,1.406,8.389z"/>
		<path fill="#FFFFFF" d="M1.425,8.999c-0.401,0.227-0.783,0.48-1.148,0.76c-0.099,0.076,0.001,0.245,0.102,0.169
			c0.364-0.28,0.746-0.534,1.147-0.761C1.635,9.104,1.534,8.936,1.425,8.999z"/>
		<path fill="#FFFFFF" d="M1.485,9.497c-0.439,0.262-0.855,0.555-1.254,0.875c-0.098,0.078,0.044,0.214,0.142,0.135
			c0.384-0.309,0.789-0.589,1.213-0.843C1.694,9.599,1.594,9.432,1.485,9.497z"/>
		<path fill="#FFFFFF" d="M1.357,10.137c-0.316,0.196-0.621,0.408-0.913,0.637c-0.098,0.077,0.001,0.247,0.1,0.169
			c0.293-0.229,0.598-0.442,0.914-0.638C1.565,10.239,1.465,10.071,1.357,10.137z"/>
		<path fill="#FFFFFF" d="M1.498,10.99c-0.441,0.233-0.847,0.519-1.217,0.852c-0.093,0.084,0.049,0.219,0.142,0.136
			c0.358-0.321,0.75-0.594,1.175-0.819C1.709,11.099,1.608,10.93,1.498,10.99z"/>
		<path fill="#FFFFFF" d="M1.343,11.904c-0.376,0.237-0.729,0.505-1.061,0.802c-0.093,0.085,0.049,0.22,0.142,0.137
			c0.318-0.286,0.657-0.543,1.021-0.77C1.55,12.005,1.45,11.836,1.343,11.904z"/>
		<path fill="#FFFFFF" d="M1.584,12.418c-0.385,0.254-0.744,0.539-1.08,0.854c-0.091,0.085,0.051,0.221,0.143,0.135
			c0.322-0.303,0.668-0.576,1.038-0.82C1.79,12.518,1.689,12.349,1.584,12.418z"/>
		<path fill="#FFFFFF" d="M1.979,13.014c-0.458,0.275-0.916,0.553-1.374,0.828c-0.107,0.065-0.008,0.233,0.101,0.168
			c0.458-0.276,0.916-0.553,1.374-0.828C2.188,13.117,2.087,12.949,1.979,13.014z"/>
		<path fill="#FFFFFF" d="M2.399,13.429c-0.471,0.3-0.93,0.614-1.38,0.943c-0.101,0.073-0.002,0.242,0.101,0.168
			c0.449-0.329,0.909-0.644,1.378-0.942C2.606,13.53,2.505,13.362,2.399,13.429z"/>
		<path fill="#FFFFFF" d="M2.479,13.953c-0.372,0.291-0.746,0.581-1.119,0.874c-0.1,0.075,0,0.244,0.1,0.168
			c0.373-0.291,0.746-0.583,1.121-0.874C2.679,14.045,2.579,13.875,2.479,13.953z"/>
		<path fill="#FFFFFF" d="M3.087,14.103c-0.445,0.302-0.868,0.63-1.272,0.985c-0.095,0.084,0.047,0.219,0.141,0.136
			c0.391-0.345,0.801-0.661,1.231-0.954C3.291,14.202,3.192,14.032,3.087,14.103z"/>
		<path fill="#FFFFFF" d="M3.571,14.373c-0.469,0.339-0.938,0.677-1.407,1.015c-0.101,0.074-0.001,0.242,0.101,0.168
			c0.469-0.338,0.938-0.677,1.407-1.015C3.772,14.467,3.673,14.299,3.571,14.373z"/>
		<path fill="#FFFFFF" d="M4.275,14.619c-0.229,0.16-0.457,0.321-0.686,0.482l-0.32,0.224c-0.099,0.07-0.237,0.215-0.363,0.223
			c-0.126,0.01-0.123,0.205,0.003,0.197c0.237-0.018,0.456-0.247,0.644-0.379c0.273-0.193,0.548-0.387,0.821-0.579
			C4.478,14.715,4.377,14.546,4.275,14.619z"/>
		<path fill="#FFFFFF" d="M5.11,14.753c-0.54,0.28-1.058,0.597-1.556,0.948c-0.102,0.073-0.001,0.241,0.102,0.168
			c0.495-0.352,1.014-0.668,1.555-0.947C5.323,14.864,5.222,14.696,5.11,14.753z"/>
		<path fill="#FFFFFF" d="M5.625,14.937c-0.444,0.279-0.884,0.566-1.336,0.832C4.179,15.833,4.279,16,4.389,15.938
			c0.452-0.268,0.893-0.554,1.337-0.832C5.833,15.038,5.732,14.871,5.625,14.937z"/>
		<path fill="#FFFFFF" d="M6.807,14.864c-0.545,0.285-1.088,0.567-1.632,0.852c-0.112,0.059-0.011,0.226,0.101,0.168
			c0.543-0.283,1.088-0.567,1.631-0.85C7.02,14.975,6.918,14.805,6.807,14.864z"/>
		<path fill="#FFFFFF" d="M7.764,14.868c-0.587,0.3-1.173,0.605-1.764,0.899c-0.112,0.057-0.011,0.225,0.101,0.168
			c0.591-0.294,1.175-0.599,1.762-0.9C7.975,14.978,7.875,14.809,7.764,14.868z"/>
		<path fill="#FFFFFF" d="M8.608,14.812c-0.629,0.307-1.243,0.636-1.847,0.991c-0.108,0.063-0.009,0.231,0.101,0.168
			c0.603-0.354,1.218-0.684,1.847-0.992C8.823,14.924,8.722,14.756,8.608,14.812z"/>
		<path fill="#FFFFFF" d="M9.553,14.804c-0.495,0.277-1.068,0.661-1.625,0.781c-0.123,0.027-0.068,0.215,0.054,0.188
			c0.583-0.126,1.156-0.513,1.671-0.801C9.763,14.911,9.662,14.743,9.553,14.804z"/>
		<path fill="#FFFFFF" d="M10.566,14.807c-0.58,0.271-1.14,0.575-1.681,0.914c-0.106,0.067-0.006,0.235,0.101,0.169
			c0.542-0.341,1.102-0.646,1.682-0.915C10.78,14.92,10.679,14.753,10.566,14.807z"/>
		<path fill="#FFFFFF" d="M11.853,14.589c-0.689,0.338-1.365,0.701-2.026,1.091c-0.109,0.064-0.009,0.232,0.1,0.168
			c0.662-0.389,1.336-0.753,2.026-1.091C12.067,14.702,11.966,14.534,11.853,14.589z"/>
		<path fill="#FFFFFF" d="M12.879,14.568c-0.633,0.366-1.267,0.73-1.901,1.095c-0.108,0.063-0.008,0.231,0.101,0.168
			c0.633-0.364,1.267-0.729,1.901-1.094C13.089,14.673,12.987,14.506,12.879,14.568z"/>
		<path fill="#FFFFFF" d="M14.322,14.382c-0.679,0.399-1.372,0.77-2.081,1.112c-0.114,0.055-0.013,0.223,0.101,0.168
			c0.708-0.342,1.401-0.713,2.081-1.111C14.532,14.487,14.431,14.32,14.322,14.382z"/>
		<path fill="#FFFFFF" d="M2.499,1.039c-0.621,0.28-1.222,0.595-1.806,0.943C0.585,2.046,0.686,2.215,0.794,2.151
			c0.584-0.349,1.186-0.663,1.805-0.944C2.713,1.156,2.612,0.987,2.499,1.039z"/>
	</g>
	<path fill="#FFFFFF" d="M13.017,1.901c-0.242,0.05-0.684,0.338-0.621,1.077c0.034,0.405,0.316,0.728,0.737,0.842
		c0.103,0.026,0.208,0.04,0.312,0.04c0.349,0,0.679-0.153,0.866-0.419c0.23-0.332,0.233-0.766,0.006-1.106
		C14.055,1.942,13.568,1.78,13.017,1.901z M13.828,3.104c-0.113,0.162-0.357,0.197-0.543,0.147
		c-0.105-0.028-0.287-0.108-0.304-0.323c-0.032-0.377,0.131-0.444,0.158-0.452c0.08-0.019,0.156-0.026,0.227-0.026
		c0.206,0,0.368,0.072,0.461,0.211C13.919,2.798,13.92,2.973,13.828,3.104z"/>
	<path fill="#FFFFFF" d="M8.744,3.163C8.417,3.114,4.925,2.713,3.552,6.832c-0.601,1.803-0.246,3.536,0.974,4.757
		c0.969,0.969,2.33,1.488,3.748,1.488c0.619,0,1.247-0.1,1.86-0.303c1.833-0.611,2.587-1.896,2.898-2.865
		c0.534-1.67,0.122-3.495-0.562-4.435C11.399,4.004,10.146,3.226,8.744,3.163z M12.472,9.73c-0.269,0.84-0.926,1.953-2.524,2.487
		c-1.778,0.592-3.789,0.172-5.006-1.044C3.869,10.1,3.574,8.625,4.109,7.018c0.985-2.953,3.102-3.309,4.063-3.309
		c0.279,0,0.461,0.029,0.491,0.035C8.677,3.747,8.69,3.749,8.704,3.749C9.94,3.8,11.017,4.478,11.994,5.82
		C12.576,6.62,12.942,8.262,12.472,9.73z"/>
	<path fill="#FFFFFF" d="M16.13,3.245c-0.239-2.447-1.448-2.875-2.099-3.105l-0.057-0.02C13.316-0.116,5.176,0.064,3.551,0.102
		c-2.991,0.06-3.155,2.38-3.164,2.605c-0.032,0.406-0.635,8.238-0.27,10.43c0.393,2.36,2.773,2.909,2.874,2.933
		c0.018,0.004,0.036,0.005,0.054,0.006c0.191,0.006,2.687,0.083,5.29,0.083c2.269,0,4.62-0.059,5.603-0.271
		c2.266-0.492,2.204-3.461,2.195-3.713C16.146,11.776,16.356,5.54,16.13,3.245z M15.545,12.189c0.002,0.026,0.099,2.726-1.732,3.124
		c-1.979,0.431-10.153,0.193-10.719,0.176c-0.232-0.058-2.087-0.59-2.397-2.448C0.342,10.91,0.967,2.829,0.974,2.748
		c0-0.008,0.001-0.016,0.001-0.016c0-0.089,0.029-1.991,2.589-2.041c3.684-0.088,9.715-0.169,10.213-0.018l0.059,0.021
		c0.601,0.212,1.507,0.533,1.71,2.607c0.225,2.282,0.002,8.799,0,8.865C15.545,12.173,15.545,12.18,15.545,12.189z"/>
</g>
</svg>
