<?xml version="1.0" encoding="utf-8"?>
<!-- Generator: Adobe Illustrator 16.0.0, SVG Export Plug-In . SVG Version: 6.00 Build 0)  -->
<!DOCTYPE svg PUBLIC "-//W3C//DTD SVG 1.1//EN" "http://www.w3.org/Graphics/SVG/1.1/DTD/svg11.dtd">
<svg version="1.1" id="Capa_1" xmlns="http://www.w3.org/2000/svg" xmlns:xlink="http://www.w3.org/1999/xlink" x="0px" y="0px"
	 width="27.717px" height="30.984px" viewBox="0 0 27.717 30.984" enable-background="new 0 0 27.717 30.984" xml:space="preserve">
<g>
	<path d="M27.667,26.775c-0.084-0.223-0.274-0.703-7.749-10.061c0.487-0.805,0.895-1.667,1.19-2.583
		c0.412-1.278,0.629-2.646,0.615-4.049c-0.039-4.197-2.191-6.615-3.99-7.907c-3.096-2.218-7.145-2.583-9.547-1.798
		c-3.752,1.23-6.199,3.303-7.268,6.161C0.603,7.182-2.56,14.137,5.042,19.725c2.859,2.102,6.081,2.701,9.05,1.746
		c3.523,4.422,6.927,8.509,6.962,8.551c0.938,1.133,2.365,1.273,3.918,0.38c0.223-0.128,0.451-0.283,0.682-0.46
		C26.821,29.044,27.972,27.607,27.667,26.775z M5.8,18.698c-5.451-4.01-4.773-8.623-4.129-10.614
		C1.856,7.508,2.04,7.151,2.069,7.095C2.085,7.067,2.095,7.04,2.106,7.014c0.932-2.525,3.051-4.298,6.479-5.421
		c2.045-0.671,5.684-0.33,8.406,1.623c1.557,1.118,3.422,3.219,3.455,6.88c0.039,4.071-2.172,7.951-5.502,9.657
		C12.013,21.252,8.765,20.877,5.8,18.698z M15.526,20.887c0.014-0.007,0.026-0.016,0.04-0.023c-0.061,0.235-0.121,0.471-0.183,0.707
		c-0.122-0.154-0.246-0.309-0.37-0.465C15.185,21.03,15.358,20.973,15.526,20.887z M25.688,28.546
		c0.074-0.271,0.136-0.545,0.217-0.813c0.062-0.212-0.258-0.34-0.32-0.128c-0.137,0.45-0.244,0.907-0.361,1.362
		c-0.209,0.172-0.431,0.333-0.668,0.475c0.126-0.427,0.239-0.858,0.336-1.293c0.047-0.216-0.297-0.251-0.344-0.036
		c-0.116,0.525-0.264,1.042-0.426,1.555c-0.091,0.042-0.179,0.091-0.271,0.125c-0.154,0.057-0.296,0.082-0.438,0.109
		c0.178-0.513,0.354-1.026,0.505-1.548c0.061-0.211-0.26-0.339-0.322-0.125c-0.165,0.575-0.356,1.141-0.557,1.705
		c-0.183-0.001-0.354-0.033-0.514-0.094c0.135-0.641,0.207-1.294,0.402-1.923c0.062-0.21-0.256-0.34-0.322-0.127
		c-0.191,0.62-0.265,1.264-0.396,1.896c-0.096-0.067-0.185-0.153-0.271-0.246c0.162-0.742,0.331-1.482,0.533-2.214
		c0.059-0.212-0.264-0.341-0.322-0.126c-0.186,0.674-0.338,1.357-0.491,2.04c-0.068-0.079-0.157-0.182-0.261-0.302
		c0.148-0.655,0.302-1.309,0.479-1.958c0.059-0.212-0.264-0.34-0.322-0.126c-0.16,0.585-0.293,1.176-0.431,1.766
		c-0.078-0.092-0.161-0.188-0.251-0.293c0.155-0.652,0.312-1.302,0.465-1.953c0.053-0.216-0.293-0.25-0.342-0.039
		c-0.134,0.558-0.266,1.113-0.398,1.668c-0.1-0.116-0.204-0.24-0.313-0.369c0.122-0.667,0.284-1.322,0.515-1.961
		c0.076-0.209-0.246-0.336-0.322-0.127c-0.206,0.571-0.355,1.157-0.479,1.75c-0.133-0.158-0.272-0.324-0.418-0.497
		c0.035-0.132,0.062-0.265,0.092-0.358c0.166-0.514,0.332-1.028,0.5-1.545c0.068-0.211-0.254-0.337-0.322-0.126
		c-0.117,0.367-0.236,0.736-0.355,1.104c-0.057,0.171-0.111,0.344-0.166,0.513c-0.003,0.007-0.014,0.043-0.025,0.081
		c-0.145-0.173-0.297-0.355-0.451-0.541c0.062-0.193,0.114-0.392,0.17-0.585c0.117-0.402,0.236-0.805,0.354-1.209
		c0.062-0.211-0.258-0.341-0.32-0.126c-0.105,0.356-0.209,0.711-0.312,1.067c-0.051,0.173-0.093,0.364-0.144,0.549
		c-0.149-0.179-0.299-0.36-0.455-0.549c0.117-0.549,0.236-1.099,0.374-1.645c0.053-0.212-0.268-0.342-0.32-0.127
		c-0.121,0.477-0.223,0.958-0.328,1.438c-0.127-0.155-0.254-0.309-0.385-0.469c0.199-0.679,0.436-1.345,0.736-1.988
		c0.094-0.201-0.227-0.328-0.32-0.126c-0.272,0.582-0.487,1.185-0.676,1.796c-0.147-0.181-0.296-0.363-0.448-0.55l0.919-2.215
		c0.084-0.206-0.234-0.331-0.32-0.127c-0.282,0.678-0.564,1.357-0.846,2.036c-0.088-0.107-0.172-0.212-0.261-0.321
		c0.243-0.681,0.486-1.361,0.728-2.04c0.076-0.211-0.244-0.338-0.318-0.128c-0.221,0.618-0.441,1.235-0.662,1.852
		c-0.121-0.15-0.242-0.301-0.365-0.455c0.111-0.427,0.222-0.854,0.332-1.281c1.33-0.768,2.473-1.819,3.383-3.072
		c6.474,8.091,7.111,9.171,7.32,9.562C26.664,27.352,26.278,27.954,25.688,28.546z"/>
</g>
</svg>
