<?xml version="1.0" encoding="utf-8"?>
<!-- Generator: Adobe Illustrator 16.0.0, SVG Export Plug-In . SVG Version: 6.00 Build 0)  -->
<!DOCTYPE svg PUBLIC "-//W3C//DTD SVG 1.1//EN" "http://www.w3.org/Graphics/SVG/1.1/DTD/svg11.dtd">
<svg version="1.1" id="Capa_1" xmlns="http://www.w3.org/2000/svg" xmlns:xlink="http://www.w3.org/1999/xlink" x="0px" y="0px"
	 width="22.197px" height="21.759px" viewBox="0 0 22.197 21.759" enable-background="new 0 0 22.197 21.759" xml:space="preserve">
<g>
	<g>
		<path fill="#DF1241" d="M3.268,6.957C2.749,7.228,2.253,7.539,1.78,7.887C1.647,7.984,1.778,8.205,1.913,8.108
			C2.383,7.759,2.88,7.449,3.4,7.177C3.547,7.1,3.415,6.88,3.268,6.957z"/>
		<path fill="#DF1241" d="M3.268,7.641C2.67,7.979,2.105,8.365,1.57,8.795c-0.128,0.104,0.058,0.28,0.186,0.179
			C2.271,8.557,2.821,8.188,3.4,7.862C3.545,7.78,3.413,7.56,3.268,7.641z"/>
		<path fill="#DF1241" d="M3.163,8.497C2.58,8.881,2.02,9.29,1.477,9.728c-0.128,0.102,0.058,0.277,0.187,0.176
			c0.525-0.421,1.068-0.815,1.632-1.186C3.432,8.628,3.302,8.407,3.163,8.497z"/>
		<path fill="#DF1241" d="M3.208,9.463c-0.505,0.305-0.982,0.65-1.433,1.032c-0.125,0.106,0.061,0.283,0.186,0.179
			c0.433-0.368,0.894-0.696,1.379-0.99C3.48,9.599,3.348,9.377,3.208,9.463z"/>
		<path fill="#DF1241" d="M3.233,10.26c-0.525,0.297-1.025,0.629-1.502,0.996c-0.129,0.1,0.001,0.32,0.133,0.221
			c0.477-0.367,0.977-0.699,1.502-0.996C3.508,10.399,3.376,10.179,3.233,10.26z"/>
		<path fill="#DF1241" d="M3.312,10.913c-0.574,0.342-1.12,0.725-1.64,1.145c-0.129,0.104,0.058,0.28,0.185,0.177
			c0.503-0.405,1.033-0.771,1.588-1.103C3.585,11.047,3.454,10.828,3.312,10.913z"/>
		<path fill="#DF1241" d="M3.145,11.753c-0.413,0.255-0.813,0.532-1.195,0.833c-0.129,0.101,0.001,0.323,0.131,0.221
			c0.383-0.301,0.782-0.58,1.195-0.835C3.417,11.885,3.285,11.665,3.145,11.753z"/>
		<path fill="#DF1241" d="M3.328,12.867c-0.576,0.306-1.107,0.679-1.593,1.114c-0.123,0.11,0.063,0.286,0.186,0.177
			c0.469-0.42,0.981-0.775,1.537-1.071C3.605,13.009,3.473,12.789,3.328,12.867z"/>
		<path fill="#DF1241" d="M4.317,14.063c-0.493,0.311-0.955,0.66-1.388,1.051c-0.122,0.111,0.063,0.287,0.186,0.177
			c0.416-0.375,0.859-0.709,1.335-1.007C4.588,14.195,4.458,13.976,4.317,14.063z"/>
		<path fill="#DF1241" d="M4.632,14.737c-0.503,0.332-0.974,0.705-1.413,1.118c-0.119,0.112,0.066,0.29,0.186,0.176
			c0.423-0.396,0.875-0.754,1.359-1.073C4.902,14.868,4.771,14.647,4.632,14.737z"/>
		<path fill="#DF1241" d="M5.15,15.517c-0.6,0.361-1.199,0.723-1.799,1.084c-0.141,0.086-0.009,0.307,0.133,0.221
			c0.599-0.361,1.199-0.724,1.798-1.085C5.422,15.651,5.292,15.431,5.15,15.517z"/>
		<path fill="#DF1241" d="M5.7,16.061c-0.616,0.392-1.218,0.803-1.807,1.234c-0.132,0.096-0.002,0.317,0.132,0.22
			c0.588-0.431,1.189-0.842,1.805-1.232C5.97,16.191,5.838,15.972,5.7,16.061z"/>
		<path fill="#DF1241" d="M5.805,16.745c-0.487,0.381-0.978,0.762-1.465,1.144c-0.13,0.101,0,0.321,0.13,0.22
			c0.489-0.382,0.977-0.762,1.467-1.143C6.065,16.864,5.935,16.645,5.805,16.745z"/>
		<path fill="#DF1241" d="M6.599,16.941c-0.582,0.395-1.136,0.826-1.665,1.291c-0.125,0.108,0.062,0.286,0.185,0.177
			c0.511-0.449,1.049-0.865,1.611-1.247C6.867,17.07,6.737,16.849,6.599,16.941z"/>
		<path fill="#DF1241" d="M7.233,17.295c-0.614,0.443-1.227,0.886-1.842,1.328C5.26,18.72,5.39,18.939,5.524,18.844
			c0.613-0.442,1.228-0.887,1.841-1.329C7.498,17.419,7.367,17.198,7.233,17.295z"/>
		<path fill="#DF1241" d="M8.155,17.616c-0.3,0.211-0.599,0.423-0.898,0.633l-0.419,0.293c-0.13,0.093-0.309,0.28-0.475,0.291
			c-0.166,0.013-0.161,0.27,0.004,0.258c0.311-0.022,0.597-0.323,0.842-0.497c0.358-0.252,0.718-0.503,1.075-0.756
			C8.419,17.743,8.289,17.521,8.155,17.616z"/>
		<path fill="#DF1241" d="M9.25,17.794c-0.708,0.366-1.387,0.78-2.037,1.24c-0.134,0.096-0.002,0.316,0.131,0.222
			c0.649-0.461,1.328-0.875,2.036-1.242C9.526,17.938,9.394,17.718,9.25,17.794z"/>
		<path fill="#DF1241" d="M9.921,19.227c-0.58,0.364-1.158,0.74-1.749,1.088c-0.144,0.084-0.011,0.304,0.131,0.222
			c0.592-0.351,1.168-0.726,1.75-1.091C10.194,19.357,10.062,19.139,9.921,19.227z"/>
		<path fill="#DF1241" d="M9.086,18.612c-0.714,0.371-1.424,0.741-2.137,1.113c-0.147,0.076-0.015,0.296,0.132,0.221
			c0.711-0.372,1.423-0.742,2.135-1.113C9.364,18.757,9.232,18.535,9.086,18.612z"/>
		<path fill="#DF1241" d="M11.529,19.134c-0.768,0.393-1.534,0.795-2.308,1.179c-0.148,0.074-0.014,0.293,0.133,0.22
			c0.772-0.385,1.538-0.784,2.306-1.179C11.807,19.278,11.675,19.06,11.529,19.134z"/>
		<path fill="#DF1241" d="M12.636,19.062c-0.824,0.401-1.627,0.833-2.417,1.298c-0.143,0.084-0.012,0.303,0.131,0.22
			c0.789-0.463,1.594-0.896,2.417-1.298C12.916,19.208,12.784,18.989,12.636,19.062z"/>
		<path fill="#DF1241" d="M13.871,19.053c-0.647,0.361-1.397,0.864-2.126,1.022c-0.161,0.034-0.09,0.28,0.069,0.246
			c0.764-0.165,1.515-0.671,2.188-1.049C14.147,19.191,14.015,18.971,13.871,19.053z"/>
		<path fill="#DF1241" d="M15.198,19.055c-0.76,0.354-1.492,0.752-2.201,1.198c-0.139,0.087-0.008,0.308,0.132,0.22
			c0.709-0.445,1.442-0.845,2.201-1.198C15.478,19.205,15.345,18.987,15.198,19.055z"/>
		<path fill="#DF1241" d="M16.882,18.771c-0.902,0.442-1.786,0.919-2.652,1.429c-0.142,0.084-0.011,0.304,0.131,0.219
			c0.866-0.51,1.75-0.985,2.653-1.427C17.163,18.918,17.031,18.698,16.882,18.771z"/>
	</g>
	<g>
		<g>
			<path fill="#DF1241" d="M18.917,3.334c-0.035-0.035-0.074-0.068-0.119-0.101c-0.017-0.018-0.033-0.036-0.053-0.054
				C14.415-0.709,8.208-1.159,3.604,2.543C-1.44,6.599-0.853,14.047,3.282,18.411c4.045,4.271,10.865,4.367,15.313,0.79
				C23.636,15.146,23.052,7.698,18.917,3.334z M5.006,18.506C0.905,15.386,0.92,9.432,3.475,5.439
				C6.62,0.528,13.502,0.063,17.7,3.708C25.554,12.114,14.564,25.774,5.006,18.506z"/>
		</g>
		<g>
			<path fill="#DF1241" d="M8.074,4.944c0.59,1.994,1.18,3.99,1.771,5.984c0.15,0.503,1.001,0.863,1.471,0.904
				c2.927,0.261,5.855,0.522,8.783,0.783c0.509,0.045-0.84-1.019-1.276-1.058c-2.928-0.26-5.855-0.521-8.783-0.783
				c0.491,0.302,0.98,0.604,1.471,0.905c-0.592-1.994-1.18-3.99-1.77-5.986C9.589,5.187,7.996,4.681,8.074,4.944L8.074,4.944z"/>
		</g>
	</g>
</g>
</svg>
