<?xml version="1.0" encoding="utf-8"?>
<!-- Generator: Adobe Illustrator 16.0.0, SVG Export Plug-In . SVG Version: 6.00 Build 0)  -->
<!DOCTYPE svg PUBLIC "-//W3C//DTD SVG 1.1//EN" "http://www.w3.org/Graphics/SVG/1.1/DTD/svg11.dtd">
<svg version="1.1" id="Capa_1" xmlns="http://www.w3.org/2000/svg" xmlns:xlink="http://www.w3.org/1999/xlink" x="0px" y="0px"
	 width="28.45px" height="29.455px" viewBox="0 0 28.45 29.455" enable-background="new 0 0 28.45 29.455" xml:space="preserve">
<g>
	<g>
		<path d="M18.101,23.202c-0.899,0.639-1.797,1.277-2.696,1.916c-0.155,0.11-0.003,0.369,0.152,0.258
			c0.9-0.639,1.799-1.276,2.698-1.915C18.411,23.349,18.257,23.09,18.101,23.202z"/>
		<path d="M17.241,23.169c-1.061,0.794-2.158,1.535-3.29,2.225c-0.164,0.101-0.011,0.357,0.153,0.258
			c1.134-0.689,2.229-1.432,3.292-2.224C17.55,23.313,17.397,23.055,17.241,23.169z"/>
		<path d="M15.511,23.913c-0.982,0.557-1.986,1.09-2.944,1.688c-0.165,0.102-0.011,0.36,0.153,0.258
			c0.957-0.598,1.963-1.131,2.945-1.69C15.833,24.073,15.68,23.817,15.511,23.913z"/>
		<path d="M14.809,23.628c-1.182,0.672-2.341,1.38-3.481,2.118c-0.162,0.105-0.009,0.364,0.154,0.259c1.14-0.74,2.3-1.446,3.48-2.12
			C15.13,23.789,14.977,23.532,14.809,23.628z"/>
		<path d="M11.948,24.355c-0.684,0.479-1.368,0.957-2.052,1.437c-0.157,0.11-0.005,0.368,0.152,0.257
			c0.685-0.479,1.368-0.957,2.053-1.436C12.258,24.503,12.107,24.245,11.948,24.355z"/>
		<path d="M11.628,24.006c-1.018,0.71-2.084,1.329-3.205,1.862c-0.132,0.063-0.065,0.297,0.08,0.277
			c0.038-0.005,0.075-0.009,0.113-0.014c0.061-0.008,0.097-0.043,0.117-0.086c1.064-0.515,2.08-1.106,3.047-1.783
			C11.941,24.153,11.788,23.895,11.628,24.006z"/>
		<path d="M10.341,23.949c-0.988,0.686-2.002,1.336-3.039,1.947c-0.165,0.098-0.013,0.354,0.155,0.257
			c1.035-0.612,2.048-1.261,3.038-1.946C10.653,24.098,10.5,23.84,10.341,23.949z"/>
		<path d="M9.368,23.839c-0.973,0.672-1.965,1.312-2.979,1.92c-0.165,0.101-0.012,0.356,0.153,0.258
			c1.014-0.608,2.008-1.248,2.979-1.92C9.68,23.986,9.527,23.729,9.368,23.839z"/>
		<path d="M8.875,23.436c-0.891,0.719-1.843,1.345-2.852,1.888c-0.17,0.091-0.015,0.35,0.152,0.259
			c1.033-0.558,2.003-1.203,2.918-1.939C9.241,23.523,9.024,23.317,8.875,23.436z"/>
		<path d="M7.835,23.394c-0.671,0.399-1.336,0.806-1.997,1.22c-0.231,0.146-0.933,0.388-0.826,0.757
			c0.054,0.187,0.342,0.104,0.288-0.083c-0.011-0.038,1.205-0.736,1.324-0.811c0.453-0.278,0.907-0.553,1.363-0.824
			C8.153,23.553,8,23.296,7.835,23.394z"/>
		<path d="M6.679,23.334c-0.427,0.254-0.854,0.508-1.283,0.763c-0.334,0.198-0.791,0.378-1.063,0.657
			C4.297,24.79,4.28,24.85,4.296,24.897c0.005,0.013,0.009,0.023,0.012,0.034c0.017,0.048,0.056,0.096,0.109,0.104
			c0.011,0.002,0.02,0.003,0.029,0.005c0.137,0.021,0.21-0.122,0.17-0.218c0.087,0.044,0.171,0.023,0.251-0.066
			c0.101-0.06,0.203-0.12,0.304-0.18c0.176-0.104,0.352-0.208,0.528-0.313c0.378-0.225,0.756-0.448,1.134-0.672
			C7,23.493,6.846,23.236,6.679,23.334z"/>
		<path d="M5.506,23.163c-0.667,0.417-1.333,0.836-1.999,1.254c-0.164,0.103-0.01,0.36,0.153,0.259L5.66,23.42
			C5.823,23.317,5.67,23.061,5.506,23.163z"/>
		<path d="M4.111,22.906c-0.589,0.471-1.19,0.923-1.805,1.359c-0.157,0.111-0.004,0.369,0.154,0.257
			c0.636-0.452,1.258-0.923,1.867-1.409C4.478,22.992,4.259,22.786,4.111,22.906z"/>
		<path d="M2.809,22.756c-0.482,0.235-0.916,0.55-1.291,0.935c-0.134,0.138,0.084,0.346,0.218,0.208
			c0.357-0.368,0.768-0.661,1.227-0.885C3.137,22.929,2.981,22.672,2.809,22.756z"/>
		<path d="M10.346,20.262c-0.842,0.714-1.77,1.295-2.775,1.752c-0.176,0.079-0.021,0.335,0.154,0.256
			c1.03-0.467,1.975-1.068,2.838-1.8C10.709,20.346,10.493,20.14,10.346,20.262z"/>
		<path d="M9.925,19.898c-0.617,0.32-1.22,0.666-1.806,1.037c-0.163,0.104-0.01,0.361,0.153,0.258
			c0.588-0.372,1.189-0.717,1.808-1.037C10.25,20.068,10.097,19.81,9.925,19.898z"/>
		<path d="M8.568,19.81c-0.584,0.391-1.17,0.78-1.755,1.172c-0.16,0.106-0.009,0.363,0.153,0.257c0.586-0.39,1.17-0.78,1.755-1.17
			C8.882,19.96,8.729,19.703,8.568,19.81z"/>
		<path d="M8.053,19.374c-0.429,0.28-0.857,0.56-1.287,0.84c-0.304,0.196-0.603,0.37-0.815,0.668
			c-0.109,0.157,0.153,0.298,0.266,0.143c0.226-0.318,0.64-0.513,0.961-0.723c0.344-0.222,0.687-0.446,1.031-0.669
			C8.369,19.527,8.215,19.27,8.053,19.374z"/>
		<path d="M7.458,18.834c-0.632,0.526-1.299,0.997-2.005,1.416c-0.166,0.099-0.014,0.355,0.154,0.258
			c0.729-0.434,1.415-0.923,2.068-1.466C7.822,18.918,7.604,18.712,7.458,18.834z"/>
		<path d="M6.926,18.325c-0.398,0.291-0.796,0.584-1.195,0.877c-0.322,0.235-0.672,0.454-0.948,0.746
			c-0.133,0.139,0.084,0.347,0.216,0.207c0.294-0.31,0.677-0.542,1.019-0.793c0.354-0.261,0.71-0.521,1.064-0.78
			C7.235,18.469,7.083,18.21,6.926,18.325z"/>
		<path d="M6.372,17.922c-0.68,0.471-1.375,0.922-2.082,1.353c-0.165,0.098-0.013,0.355,0.152,0.256
			c0.709-0.429,1.404-0.88,2.084-1.352C6.685,18.069,6.532,17.812,6.372,17.922z"/>
		<path d="M5.405,17.71c-0.393,0.259-0.785,0.52-1.179,0.778c-0.297,0.195-0.58,0.37-0.776,0.674
			c-0.103,0.162,0.16,0.303,0.266,0.142c0.208-0.323,0.598-0.515,0.913-0.722c0.31-0.205,0.622-0.409,0.93-0.613
			C5.72,17.861,5.566,17.604,5.405,17.71z"/>
		<path d="M5.958,16.307c-1.019,0.665-2.116,1.277-3.021,2.097c-0.144,0.13,0.074,0.338,0.217,0.208
			c0.884-0.8,1.962-1.397,2.956-2.046C6.273,16.46,6.121,16.201,5.958,16.307z"/>
		<path d="M5.977,15.338c-0.647,0.355-1.255,0.768-1.828,1.235c-0.147,0.122,0.068,0.329,0.217,0.208
			c0.553-0.45,1.141-0.843,1.765-1.185C6.3,15.503,6.147,15.248,5.977,15.338z"/>
		<path d="M5.437,14.855c-0.391,0.246-0.782,0.492-1.172,0.738c-0.299,0.189-0.7,0.358-0.913,0.646
			c-0.112,0.154,0.102,0.363,0.216,0.208c0.217-0.295,0.674-0.484,0.98-0.68c0.348-0.218,0.695-0.438,1.042-0.655
			C5.753,15.01,5.599,14.753,5.437,14.855z"/>
		<path d="M4.682,14.358c-0.636,0.407-1.399,0.772-1.937,1.308c-0.138,0.137,0.079,0.344,0.217,0.208
			c0.514-0.514,1.264-0.868,1.874-1.258C4.998,14.511,4.845,14.254,4.682,14.358z"/>
		<path d="M4.244,13.631c-0.622,0.586-1.468,0.85-2.064,1.469c-0.133,0.139,0.082,0.347,0.218,0.207
			c0.594-0.616,1.442-0.883,2.064-1.469C4.6,13.705,4.383,13.498,4.244,13.631z"/>
		<path d="M4.264,12.547c-0.486,0.315-0.975,0.63-1.46,0.945c-0.303,0.196-0.736,0.361-0.857,0.725
			c-0.062,0.182,0.231,0.251,0.292,0.069c0.064-0.193,0.413-0.338,0.573-0.44c0.169-0.111,0.339-0.222,0.51-0.332
			c0.365-0.236,0.73-0.473,1.096-0.71C4.58,12.698,4.425,12.443,4.264,12.547z"/>
		<path d="M3.415,11.967c-0.595,0.4-1.188,0.801-1.785,1.203c-0.158,0.107-0.006,0.365,0.153,0.258
			c0.596-0.401,1.191-0.803,1.785-1.204C3.727,12.116,3.575,11.858,3.415,11.967z"/>
		<path d="M2.133,11.997c-0.262,0.133-0.501,0.295-0.728,0.482c-0.148,0.124,0.069,0.329,0.218,0.207
			c0.204-0.17,0.428-0.311,0.664-0.433C2.46,12.167,2.304,11.91,2.133,11.997z"/>
		<path d="M4.072,10.478c-0.419,0.241-0.812,0.518-1.184,0.827c-0.148,0.124,0.068,0.33,0.218,0.208
			c0.349-0.293,0.725-0.55,1.12-0.777C4.393,10.64,4.239,10.382,4.072,10.478z"/>
		<path d="M4.298,11.157c-0.238,0.147-0.478,0.295-0.717,0.441c-0.164,0.102-0.01,0.358,0.154,0.259
			c0.24-0.148,0.479-0.295,0.716-0.442C4.617,11.314,4.463,11.056,4.298,11.157z"/>
		<path d="M3.371,10.085c-0.318,0.185-0.624,0.389-0.918,0.611c-0.151,0.116,0.002,0.374,0.153,0.257
			c0.294-0.223,0.601-0.426,0.918-0.61C3.692,10.245,3.536,9.987,3.371,10.085z"/>
		<path d="M3.517,9.179c-0.474,0.364-0.946,0.729-1.418,1.093c-0.152,0.117,0,0.376,0.153,0.259
			c0.473-0.365,0.946-0.729,1.418-1.094C3.822,9.32,3.67,9.061,3.517,9.179z"/>
		<path d="M3.512,8.271C3.149,8.507,2.786,8.741,2.421,8.976C2.173,9.139,1.893,9.282,1.774,9.568C1.7,9.746,1.962,9.89,2.038,9.711
			c0.124-0.293,0.501-0.453,0.757-0.618c0.29-0.188,0.581-0.375,0.873-0.564C3.828,8.424,3.674,8.166,3.512,8.271z"/>
		<path d="M3.321,7.328C2.872,7.615,2.419,7.902,1.97,8.189C1.807,8.292,1.96,8.55,2.125,8.446c0.449-0.287,0.899-0.572,1.35-0.859
			C3.636,7.482,3.484,7.225,3.321,7.328z"/>
		<path d="M2.91,6.619C2.55,6.857,2.178,7.074,1.793,7.269C1.621,7.357,1.775,7.613,1.947,7.527
			c0.386-0.196,0.757-0.412,1.117-0.649C3.225,6.771,3.072,6.513,2.91,6.619z"/>
		<path d="M2.951,5.573C2.613,5.749,2.277,5.925,1.94,6.102C1.769,6.19,1.924,6.448,2.093,6.359c0.337-0.176,0.673-0.354,1.01-0.53
			C3.276,5.741,3.12,5.482,2.951,5.573z"/>
		<path d="M16.151,8.736c-0.813,0.541-1.661,1.019-2.546,1.431c-0.175,0.081-0.021,0.339,0.152,0.258
			c0.887-0.412,1.734-0.89,2.549-1.431C16.464,8.888,16.313,8.629,16.151,8.736z"/>
		<path d="M16.142,7.785c-0.786,0.52-1.599,0.99-2.441,1.41c-0.174,0.087-0.02,0.343,0.152,0.256
			c0.843-0.419,1.657-0.889,2.442-1.408C16.455,7.936,16.303,7.678,16.142,7.785z"/>
		<path d="M16.032,7.102c-0.81,0.243-1.565,0.603-2.265,1.077c-0.157,0.108-0.006,0.365,0.153,0.257
			c0.679-0.462,1.407-0.809,2.192-1.045C16.298,7.336,16.215,7.046,16.032,7.102z"/>
		<path d="M17.122,5.583c-0.805,0.427-1.617,0.839-2.438,1.233c-0.175,0.084-0.018,0.34,0.153,0.258
			c0.82-0.396,1.633-0.807,2.438-1.233C17.447,5.75,17.292,5.493,17.122,5.583z"/>
		<path d="M17.935,4.511c-0.861,0.415-1.722,0.829-2.583,1.244c-0.174,0.084-0.019,0.341,0.153,0.259
			c0.861-0.416,1.722-0.83,2.583-1.245C18.262,4.686,18.107,4.428,17.935,4.511z"/>
	</g>
	<path d="M28.439,6.771c-0.048-0.227-0.225-0.392-0.459-0.43c-0.299-0.05-1,0.015-1.621,0.092c1.592-2.354,1.565-2.38,1.303-2.657
		c-0.141-0.148-0.375-0.178-0.555-0.08c-0.497,0.272-2.783,1.264-3.306,1.196c-0.054-0.039-0.141-0.115-0.229-0.189
		c-0.858-0.743-3.474-3-6.697-1.001c-2.919,1.813-3.467,4.813-3.569,5.914c-0.988,0.054-3.8,0.032-6.443-1.541
		C4.884,6.896,3.948,5.652,3.388,4.908C3.022,4.422,2.802,4.129,2.445,4.098C2.319,4.09,2.13,4.112,1.949,4.282
		c-0.696,0.66-1.04,3.483-0.791,5.11c0.101,0.654,0.382,1.23,0.706,1.707c-0.145-0.058-0.291-0.116-0.435-0.175
		c-0.128-0.051-0.274-0.041-0.395,0.029c-0.119,0.071-0.2,0.192-0.217,0.33c-0.015,0.099-0.297,2.425,1.365,4.312
		c0.32,0.364,0.755,0.787,1.309,1.165H3.175c-0.083,0-0.166,0.024-0.235,0.067c-0.061,0.036-0.362,0.244-0.43,0.71
		c-0.084,0.575,0.239,1.272,0.958,2.07c1.038,1.15,2.986,1.7,4.121,1.982c-0.596,0.331-1.604,0.739-3.063,0.857
		c-1.152,0.095-2.085,0.004-2.766-0.062c-0.763-0.073-1.223-0.117-1.528,0.148C0.133,22.624,0.011,22.78,0,23.035
		c-0.011,0.271,0.169,0.528,0.605,0.865c1.135,0.879,4.726,2.66,9.61,2.66c1.839,0,3.861-0.253,6.004-0.902
		c6.619-2.004,7.929-8.892,8.713-13.005c0.234-1.235,0.5-2.635,0.786-2.821C26.508,9.31,28.618,7.615,28.439,6.771z M25.223,9.081
		c-0.602,0.396-0.817,1.528-1.175,3.402c-0.743,3.915-1.991,10.468-8.089,12.313c-7.364,2.231-13.274-0.439-14.757-1.556
		c0.148,0.009,0.315,0.026,0.472,0.04c0.715,0.069,1.691,0.163,2.926,0.063c2.659-0.215,4.103-1.338,4.342-1.627
		c0.101-0.12,0.134-0.294,0.086-0.442c-0.092-0.279-0.289-0.328-0.94-0.488c-0.976-0.237-3.006-0.733-3.95-1.781
		c-0.675-0.748-0.762-1.171-0.735-1.346h2.104c0.226,0,0.438-0.169,0.469-0.393c0.012-0.093,0.019-0.402-0.397-0.514
		c-1.272-0.341-2.183-1.141-2.722-1.753c-0.919-1.045-1.124-2.28-1.158-2.998c1.638,0.654,1.695,0.654,1.79,0.654
		c0.189,0,0.358-0.117,0.424-0.293c0.112-0.297-0.096-0.48-0.234-0.603c-0.356-0.313-1.439-1.268-1.631-2.505
		C1.815,7.739,2.157,5.819,2.441,5.15C2.513,5.238,2.594,5.348,2.67,5.449c0.56,0.745,1.603,2.13,3.732,3.397
		c3.524,2.1,7.231,1.652,7.389,1.632c0.224-0.028,0.392-0.219,0.392-0.445c0-0.036,0.036-3.624,3.167-5.566
		c2.66-1.651,4.745,0.147,5.636,0.915c0.149,0.132,0.26,0.225,0.353,0.286c0.487,0.314,1.779-0.111,2.808-0.539
		c-0.352,0.53-0.763,1.143-1.101,1.638c-0.1,0.148-0.103,0.342-0.007,0.495c0.096,0.15,0.27,0.229,0.449,0.203
		c0.615-0.096,1.328-0.187,1.815-0.225C26.925,7.706,26.165,8.459,25.223,9.081z"/>
</g>
</svg>
