<?xml version="1.0" encoding="utf-8"?>
<!-- Generator: Adobe Illustrator 16.0.0, SVG Export Plug-In . SVG Version: 6.00 Build 0)  -->
<!DOCTYPE svg PUBLIC "-//W3C//DTD SVG 1.1//EN" "http://www.w3.org/Graphics/SVG/1.1/DTD/svg11.dtd">
<svg version="1.1" id="Capa_1" xmlns="http://www.w3.org/2000/svg" xmlns:xlink="http://www.w3.org/1999/xlink" x="0px" y="0px"
	 width="18.988px" height="15.795px" viewBox="0 0 18.988 15.795" enable-background="new 0 0 18.988 15.795" xml:space="preserve">
<g>
	<g>
		<path fill="#FFFFFF" d="M12.081,13.554c-0.6,0.427-1.199,0.852-1.799,1.278c-0.104,0.074-0.002,0.247,0.102,0.172
			c0.602-0.426,1.201-0.852,1.801-1.277C12.288,13.652,12.186,13.48,12.081,13.554z"/>
		<path fill="#FFFFFF" d="M11.508,13.532c-0.711,0.529-1.441,1.024-2.197,1.485C9.2,15.084,9.303,15.256,9.413,15.19
			c0.756-0.462,1.488-0.955,2.197-1.485C11.713,13.627,11.612,13.456,11.508,13.532z"/>
		<path fill="#FFFFFF" d="M10.352,14.028c-0.656,0.371-1.326,0.729-1.965,1.128c-0.109,0.068-0.008,0.24,0.102,0.172
			c0.639-0.399,1.311-0.755,1.967-1.128C10.567,14.135,10.465,13.963,10.352,14.028z"/>
		<path fill="#FFFFFF" d="M9.883,13.838c-0.789,0.449-1.562,0.92-2.324,1.414c-0.107,0.07-0.004,0.242,0.104,0.172
			c0.76-0.493,1.535-0.966,2.324-1.414C10.098,13.947,9.995,13.774,9.883,13.838z"/>
		<path fill="#FFFFFF" d="M7.975,14.324c-0.457,0.32-0.914,0.64-1.371,0.958c-0.104,0.074-0.002,0.247,0.104,0.173
			c0.457-0.319,0.912-0.639,1.369-0.959C8.182,14.421,8.081,14.25,7.975,14.324z"/>
		<path fill="#FFFFFF" d="M7.76,14.09c-0.678,0.474-1.391,0.889-2.139,1.243c-0.088,0.042-0.045,0.198,0.053,0.187
			c0.025-0.004,0.051-0.007,0.076-0.012c0.041-0.004,0.064-0.026,0.08-0.056c0.707-0.344,1.387-0.739,2.033-1.19
			C7.969,14.19,7.866,14.016,7.76,14.09z"/>
		<path fill="#FFFFFF" d="M6.903,14.053c-0.66,0.457-1.336,0.891-2.029,1.299c-0.111,0.066-0.008,0.237,0.104,0.171
			c0.691-0.407,1.365-0.841,2.027-1.298C7.11,14.153,7.008,13.981,6.903,14.053z"/>
		<path fill="#FFFFFF" d="M6.252,13.979c-0.648,0.448-1.312,0.876-1.988,1.281c-0.111,0.066-0.008,0.238,0.102,0.172
			c0.678-0.405,1.34-0.833,1.988-1.281C6.459,14.077,6.358,13.905,6.252,13.979z"/>
		<path fill="#FFFFFF" d="M5.922,13.709c-0.594,0.48-1.23,0.897-1.902,1.26c-0.115,0.062-0.012,0.234,0.102,0.174
			c0.689-0.372,1.336-0.805,1.947-1.295C6.168,13.768,6.024,13.63,5.922,13.709z"/>
		<path fill="#FFFFFF" d="M5.229,13.682c-0.447,0.266-0.893,0.537-1.332,0.813C3.741,14.593,3.274,14.754,3.344,15
			c0.035,0.125,0.229,0.07,0.193-0.055c-0.008-0.025,0.805-0.491,0.883-0.54c0.303-0.187,0.607-0.37,0.91-0.552
			C5.442,13.789,5.338,13.616,5.229,13.682z"/>
		<path fill="#FFFFFF" d="M4.458,13.641c-0.285,0.171-0.57,0.341-0.857,0.51c-0.223,0.133-0.527,0.252-0.709,0.439
			c-0.023,0.023-0.035,0.062-0.023,0.097c0.002,0.007,0.006,0.015,0.008,0.021c0.01,0.033,0.037,0.064,0.072,0.071
			c0.008,0.001,0.014,0.001,0.02,0.002c0.09,0.015,0.139-0.081,0.115-0.144c0.057,0.028,0.113,0.015,0.166-0.045
			c0.068-0.04,0.135-0.08,0.203-0.121c0.115-0.068,0.234-0.139,0.354-0.209c0.25-0.149,0.504-0.299,0.756-0.447
			C4.672,13.749,4.569,13.577,4.458,13.641z"/>
		<path fill="#FFFFFF" d="M3.676,13.528c-0.447,0.278-0.893,0.557-1.336,0.837c-0.109,0.068-0.006,0.241,0.102,0.173l1.336-0.839
			C3.885,13.63,3.784,13.459,3.676,13.528z"/>
		<path fill="#FFFFFF" d="M2.743,13.356c-0.393,0.314-0.795,0.617-1.205,0.908c-0.104,0.073-0.002,0.245,0.105,0.171
			c0.424-0.301,0.838-0.615,1.246-0.94C2.989,13.415,2.84,13.277,2.743,13.356z"/>
		<path fill="#FFFFFF" d="M1.875,13.255c-0.322,0.158-0.611,0.367-0.861,0.624c-0.09,0.094,0.053,0.231,0.145,0.14
			c0.238-0.246,0.512-0.441,0.818-0.591C2.092,13.372,1.989,13.2,1.875,13.255z"/>
		<path fill="#FFFFFF" d="M6.905,11.591c-0.562,0.478-1.18,0.864-1.854,1.169c-0.115,0.054-0.012,0.225,0.105,0.173
			c0.688-0.312,1.316-0.715,1.893-1.204C7.149,11.647,7.002,11.509,6.905,11.591z"/>
		<path fill="#FFFFFF" d="M6.625,11.349c-0.412,0.213-0.816,0.444-1.207,0.692c-0.107,0.068-0.006,0.24,0.104,0.172
			c0.391-0.249,0.793-0.479,1.205-0.692C6.842,11.462,6.739,11.291,6.625,11.349z"/>
		<path fill="#FFFFFF" d="M5.717,11.291c-0.389,0.261-0.779,0.521-1.17,0.78c-0.109,0.072-0.006,0.244,0.102,0.173
			c0.391-0.261,0.781-0.521,1.172-0.781C5.928,11.39,5.827,11.219,5.717,11.291z"/>
		<path fill="#FFFFFF" d="M5.374,10.999c-0.285,0.188-0.572,0.374-0.857,0.561c-0.203,0.131-0.402,0.247-0.545,0.446
			C3.897,12.11,4.075,12.204,4.149,12.1c0.15-0.212,0.426-0.342,0.641-0.48c0.23-0.149,0.459-0.299,0.688-0.448
			C5.584,11.101,5.483,10.929,5.374,10.999z"/>
		<path fill="#FFFFFF" d="M4.977,10.638c-0.422,0.352-0.867,0.666-1.338,0.945c-0.111,0.066-0.008,0.238,0.102,0.172
			c0.486-0.288,0.945-0.616,1.381-0.978C5.221,10.694,5.075,10.557,4.977,10.638z"/>
		<path fill="#FFFFFF" d="M4.624,10.298c-0.268,0.196-0.533,0.392-0.799,0.586c-0.215,0.158-0.449,0.303-0.633,0.497
			c-0.088,0.095,0.057,0.231,0.145,0.14c0.195-0.208,0.449-0.362,0.68-0.53c0.236-0.174,0.473-0.347,0.711-0.52
			C4.829,10.395,4.727,10.223,4.624,10.298z"/>
		<path fill="#FFFFFF" d="M4.252,10.03c-0.455,0.314-0.918,0.615-1.391,0.902c-0.109,0.065-0.008,0.238,0.104,0.171
			c0.473-0.286,0.936-0.587,1.389-0.902C4.461,10.128,4.36,9.957,4.252,10.03z"/>
		<path fill="#FFFFFF" d="M3.608,9.888c-0.264,0.173-0.525,0.346-0.787,0.521c-0.199,0.129-0.387,0.246-0.518,0.448
			c-0.07,0.109,0.105,0.202,0.176,0.096c0.141-0.217,0.398-0.344,0.609-0.481c0.207-0.139,0.416-0.273,0.621-0.41
			C3.817,9.989,3.715,9.819,3.608,9.888z"/>
		<path fill="#FFFFFF" d="M3.977,8.952c-0.682,0.445-1.412,0.853-2.016,1.399c-0.096,0.087,0.049,0.225,0.143,0.139
			c0.59-0.533,1.311-0.932,1.975-1.366C4.188,9.053,4.084,8.882,3.977,8.952z"/>
		<path fill="#FFFFFF" d="M3.991,8.305C3.557,8.543,3.151,8.819,2.768,9.13C2.67,9.211,2.815,9.349,2.913,9.268
			c0.369-0.301,0.764-0.562,1.18-0.791C4.204,8.416,4.102,8.245,3.991,8.305z"/>
		<path fill="#FFFFFF" d="M3.627,7.983c-0.26,0.164-0.521,0.329-0.781,0.493C2.647,8.602,2.379,8.715,2.237,8.907
			C2.161,9.01,2.305,9.15,2.381,9.045c0.145-0.197,0.449-0.322,0.652-0.453c0.234-0.146,0.465-0.291,0.697-0.438
			C3.84,8.086,3.737,7.915,3.627,7.983z"/>
		<path fill="#FFFFFF" d="M3.124,7.652C2.7,7.923,2.192,8.167,1.833,8.523c-0.092,0.093,0.053,0.23,0.145,0.14
			c0.344-0.343,0.844-0.578,1.25-0.84C3.334,7.754,3.233,7.583,3.124,7.652z"/>
		<path fill="#FFFFFF" d="M2.833,7.166c-0.416,0.391-0.98,0.567-1.379,0.98C1.366,8.238,1.51,8.377,1.598,8.284
			c0.398-0.412,0.963-0.588,1.379-0.979C3.071,7.216,2.924,7.079,2.833,7.166z"/>
		<path fill="#FFFFFF" d="M2.844,6.443c-0.324,0.21-0.648,0.421-0.973,0.63C1.668,7.204,1.379,7.314,1.299,7.556
			C1.258,7.678,1.454,7.723,1.493,7.602C1.538,7.473,1.77,7.377,1.875,7.309c0.113-0.074,0.227-0.148,0.34-0.222
			c0.246-0.158,0.488-0.315,0.732-0.473C3.055,6.543,2.954,6.372,2.844,6.443z"/>
		<path fill="#FFFFFF" d="M2.28,6.055C1.881,6.323,1.485,6.59,1.088,6.858C0.981,6.93,1.083,7.102,1.19,7.03
			c0.396-0.268,0.793-0.535,1.191-0.803C2.487,6.155,2.385,5.984,2.28,6.055z"/>
		<path fill="#FFFFFF" d="M1.422,6.076C1.249,6.165,1.088,6.273,0.938,6.398C0.84,6.48,0.985,6.617,1.083,6.535
			c0.137-0.112,0.285-0.208,0.443-0.287C1.643,6.189,1.538,6.016,1.422,6.076z"/>
		<path fill="#FFFFFF" d="M2.717,5.061C2.438,5.222,2.174,5.407,1.928,5.613c-0.1,0.083,0.045,0.221,0.145,0.14
			c0.232-0.195,0.482-0.368,0.748-0.519C2.93,5.168,2.829,4.997,2.717,5.061z"/>
		<path fill="#FFFFFF" d="M2.87,5.515c-0.16,0.098-0.32,0.196-0.48,0.294C2.28,5.877,2.385,6.048,2.493,5.981
			c0.16-0.098,0.32-0.196,0.479-0.294C3.083,5.62,2.979,5.447,2.87,5.515z"/>
		<path fill="#FFFFFF" d="M2.249,4.799c-0.213,0.123-0.416,0.26-0.611,0.408c-0.104,0.076,0,0.248,0.102,0.172
			c0.197-0.149,0.4-0.285,0.613-0.408C2.463,4.906,2.36,4.734,2.249,4.799z"/>
		<path fill="#FFFFFF" d="M2.348,4.194C2.03,4.438,1.715,4.681,1.399,4.924c-0.1,0.077,0.002,0.251,0.104,0.171
			C1.819,4.853,2.133,4.61,2.45,4.367C2.549,4.289,2.448,4.116,2.348,4.194z"/>
		<path fill="#FFFFFF" d="M2.344,3.587C2.102,3.745,1.86,3.902,1.616,4.058C1.45,4.167,1.264,4.262,1.184,4.455
			C1.135,4.573,1.309,4.668,1.36,4.549c0.082-0.195,0.334-0.303,0.506-0.412c0.193-0.126,0.387-0.251,0.582-0.378
			C2.555,3.691,2.454,3.519,2.344,3.587z"/>
		<path fill="#FFFFFF" d="M2.215,2.959c-0.301,0.19-0.602,0.383-0.9,0.574c-0.107,0.068-0.008,0.24,0.102,0.172
			c0.301-0.191,0.602-0.383,0.902-0.574C2.426,3.062,2.325,2.891,2.215,2.959z"/>
		<path fill="#FFFFFF" d="M1.942,2.487C1.702,2.645,1.454,2.79,1.196,2.919C1.083,2.978,1.184,3.15,1.299,3.091
			c0.256-0.13,0.506-0.274,0.744-0.433C2.153,2.586,2.049,2.416,1.942,2.487z"/>
		<path fill="#FFFFFF" d="M1.967,1.787C1.743,1.906,1.518,2.022,1.293,2.139C1.18,2.2,1.284,2.372,1.397,2.312
			c0.225-0.117,0.449-0.235,0.674-0.354C2.186,1.899,2.083,1.727,1.967,1.787z"/>
		<path fill="#FFFFFF" d="M10.78,3.899C10.237,4.26,9.67,4.578,9.079,4.854C8.963,4.908,9.065,5.08,9.182,5.025
			c0.59-0.274,1.158-0.593,1.701-0.954C10.989,3.999,10.887,3.827,10.78,3.899z"/>
		<path fill="#FFFFFF" d="M10.774,3.263c-0.525,0.349-1.068,0.661-1.631,0.942C9.028,4.262,9.131,4.433,9.247,4.377
			c0.561-0.281,1.105-0.594,1.629-0.941C10.983,3.366,10.881,3.193,10.774,3.263z"/>
		<path fill="#FFFFFF" d="M10.7,2.809c-0.541,0.161-1.045,0.4-1.51,0.718C9.083,3.599,9.184,3.771,9.292,3.699
			C9.743,3.39,10.229,3.159,10.754,3C10.877,2.963,10.823,2.77,10.7,2.809z"/>
		<path fill="#FFFFFF" d="M11.428,1.795c-0.539,0.283-1.08,0.559-1.629,0.822C9.682,2.672,9.788,2.844,9.903,2.79
			c0.549-0.264,1.09-0.538,1.627-0.823C11.645,1.906,11.542,1.735,11.428,1.795z"/>
		<path fill="#FFFFFF" d="M11.971,1.079c-0.574,0.277-1.15,0.554-1.725,0.83c-0.117,0.056-0.012,0.229,0.102,0.172
			c0.576-0.277,1.15-0.553,1.725-0.829C12.188,1.196,12.086,1.024,11.971,1.079z"/>
	</g>
	<path fill="#FFFFFF" d="M18.981,2.586c-0.033-0.15-0.15-0.261-0.307-0.286c-0.199-0.034-0.666,0.01-1.082,0.062
		c1.062-1.57,1.045-1.59,0.871-1.773c-0.096-0.101-0.252-0.119-0.371-0.055c-0.332,0.182-1.857,0.845-2.207,0.8
		c-0.035-0.027-0.094-0.077-0.152-0.127c-0.574-0.495-2.318-2.003-4.469-0.669C9.313,1.748,8.95,3.75,8.881,4.486
		c-0.66,0.036-2.535,0.021-4.303-1.029C3.26,2.671,2.635,1.839,2.26,1.343C2.018,1.02,1.87,0.824,1.631,0.803
		C1.547,0.797,1.42,0.813,1.299,0.927c-0.465,0.438-0.693,2.325-0.527,3.41C0.84,4.774,1.028,5.159,1.243,5.476
		C1.147,5.437,1.049,5.399,0.954,5.36C0.868,5.326,0.77,5.333,0.69,5.379S0.557,5.507,0.543,5.6
		C0.536,5.666,0.348,7.218,1.456,8.477C1.67,8.721,1.961,9.002,2.329,9.255H2.118c-0.055,0-0.109,0.016-0.156,0.045
		C1.92,9.325,1.719,9.461,1.674,9.774c-0.055,0.384,0.16,0.849,0.641,1.381c0.693,0.768,1.992,1.135,2.75,1.324
		c-0.398,0.221-1.07,0.493-2.045,0.572c-0.77,0.062-1.391,0.003-1.846-0.042c-0.51-0.05-0.814-0.077-1.02,0.101
		C0.088,13.167,0.006,13.273,0,13.443c-0.008,0.18,0.113,0.353,0.402,0.577c0.76,0.587,3.156,1.775,6.416,1.775
		c1.227,0,2.578-0.168,4.008-0.602c4.418-1.338,5.291-5.935,5.814-8.681c0.158-0.823,0.334-1.758,0.523-1.884
		C17.692,4.282,19.102,3.15,18.981,2.586z M16.834,4.129c-0.402,0.265-0.545,1.02-0.783,2.271c-0.496,2.614-1.33,6.987-5.398,8.218
		c-4.916,1.49-8.861-0.293-9.85-1.038c0.098,0.007,0.209,0.019,0.314,0.028c0.477,0.045,1.129,0.107,1.951,0.041
		c1.775-0.144,2.738-0.894,2.898-1.086c0.068-0.08,0.09-0.195,0.059-0.295c-0.062-0.186-0.193-0.219-0.629-0.325
		c-0.652-0.158-2.006-0.491-2.637-1.19c-0.449-0.498-0.508-0.781-0.49-0.896h1.406c0.148,0,0.291-0.113,0.311-0.263
		C3.995,9.532,4,9.325,3.723,9.25c-0.85-0.226-1.457-0.761-1.816-1.17C1.292,7.383,1.155,6.557,1.133,6.079
		c1.092,0.438,1.131,0.438,1.195,0.438c0.125,0,0.238-0.078,0.281-0.195C2.686,6.122,2.545,6,2.454,5.917
		C2.215,5.708,1.493,5.072,1.366,4.247C1.209,3.234,1.44,1.952,1.629,1.506c0.047,0.059,0.1,0.131,0.152,0.197
		c0.373,0.499,1.07,1.423,2.492,2.27C6.625,5.373,9.1,5.076,9.204,5.062c0.148-0.02,0.262-0.147,0.262-0.298
		c0-0.024,0.025-2.418,2.113-3.716c1.777-1.101,3.168,0.099,3.764,0.612c0.1,0.087,0.172,0.148,0.234,0.19
		c0.324,0.21,1.188-0.075,1.875-0.36c-0.236,0.354-0.51,0.764-0.734,1.094c-0.068,0.099-0.07,0.229-0.006,0.33
		c0.064,0.101,0.18,0.152,0.299,0.136c0.412-0.064,0.887-0.125,1.213-0.15C17.971,3.21,17.463,3.713,16.834,4.129z"/>
</g>
</svg>
