<?xml version="1.0" encoding="utf-8"?>
<!-- Generator: Adobe Illustrator 16.0.0, SVG Export Plug-In . SVG Version: 6.00 Build 0)  -->
<!DOCTYPE svg PUBLIC "-//W3C//DTD SVG 1.1//EN" "http://www.w3.org/Graphics/SVG/1.1/DTD/svg11.dtd">
<svg version="1.1" id="Capa_1" xmlns="http://www.w3.org/2000/svg" xmlns:xlink="http://www.w3.org/1999/xlink" x="0px" y="0px"
	 width="18.141px" height="13.417px" viewBox="0 0 18.141 13.417" enable-background="new 0 0 18.141 13.417" xml:space="preserve">
<g>
	<g>
		<path fill="#FFFFFF" d="M2.053,2.845C1.43,3.139,0.831,3.474,0.256,3.852C0.147,3.923,0.249,4.095,0.358,4.023
			C0.932,3.646,1.532,3.31,2.155,3.017C2.272,2.962,2.168,2.79,2.053,2.845z"/>
		<path fill="#FFFFFF" d="M2.305,3.375C1.651,3.689,1.018,4.042,0.407,4.43C0.299,4.5,0.401,4.672,0.51,4.602
			c0.611-0.389,1.244-0.739,1.896-1.055C2.524,3.489,2.42,3.318,2.305,3.375z"/>
		<path fill="#FFFFFF" d="M2.297,4.188C1.633,4.554,1.006,4.977,0.417,5.453c-0.1,0.08,0.045,0.219,0.145,0.138
			c0.576-0.465,1.191-0.874,1.84-1.23C2.514,4.298,2.413,4.127,2.297,4.188z"/>
		<path fill="#FFFFFF" d="M2.172,5.09C1.61,5.469,1.042,5.836,0.463,6.191C0.354,6.26,0.456,6.432,0.565,6.363
			c0.578-0.357,1.148-0.723,1.709-1.103C2.381,5.19,2.28,5.019,2.172,5.09z"/>
		<path fill="#FFFFFF" d="M2.221,5.786c-0.307,0.163-0.607,0.333-0.9,0.515C1.172,6.389,1.028,6.482,0.883,6.578
			C0.77,6.653,0.606,6.821,0.463,6.822c-0.129,0-0.125,0.201,0.002,0.201c0.279-0.001,0.566-0.307,0.793-0.449
			c0.348-0.22,0.703-0.423,1.066-0.616C2.438,5.897,2.334,5.726,2.221,5.786z"/>
		<path fill="#FFFFFF" d="M2.004,6.552c-0.562,0.306-1.08,0.677-1.549,1.112C0.36,7.752,0.504,7.892,0.598,7.803
			c0.457-0.424,0.961-0.782,1.51-1.079C2.221,6.662,2.118,6.489,2.004,6.552z"/>
		<path fill="#FFFFFF" d="M2.424,7.118c-0.58,0.323-1.117,0.71-1.607,1.159C0.721,8.365,0.868,8.502,0.961,8.416
			c0.479-0.438,1-0.811,1.566-1.127C2.641,7.227,2.538,7.055,2.424,7.118z"/>
		<path fill="#FFFFFF" d="M2.325,7.944C1.711,8.381,1.116,8.84,0.536,9.322C0.436,9.403,0.583,9.541,0.68,9.46
			c0.564-0.47,1.148-0.916,1.748-1.344C2.532,8.043,2.43,7.87,2.325,7.944z"/>
		<path fill="#FFFFFF" d="M2.481,8.703c-0.604,0.382-1.17,0.811-1.703,1.284c-0.098,0.085,0.047,0.225,0.145,0.14
			c0.52-0.464,1.072-0.881,1.66-1.252C2.692,8.805,2.588,8.634,2.481,8.703z"/>
		<path fill="#FFFFFF" d="M2.598,9.467c-0.562,0.316-1.076,0.703-1.539,1.155c-0.092,0.089,0.053,0.228,0.145,0.138
			c0.451-0.439,0.949-0.812,1.498-1.123C2.813,9.574,2.709,9.402,2.598,9.467z"/>
		<path fill="#FFFFFF" d="M2.756,10.181c-0.568,0.404-1.086,0.865-1.551,1.388c-0.086,0.096,0.059,0.234,0.145,0.137
			c0.451-0.508,0.955-0.959,1.51-1.352C2.963,10.278,2.862,10.106,2.756,10.181z"/>
		<path fill="#FFFFFF" d="M3.256,10.754c-0.576,0.396-1.104,0.848-1.582,1.357c-0.088,0.095,0.057,0.234,0.145,0.14
			c0.467-0.497,0.979-0.94,1.539-1.325C3.465,10.854,3.362,10.682,3.256,10.754z"/>
		<path fill="#FFFFFF" d="M3.932,11.157c-0.568,0.337-1.102,0.726-1.6,1.162c-0.096,0.087,0.049,0.224,0.145,0.14
			c0.484-0.426,1.004-0.801,1.559-1.13C4.147,11.264,4.043,11.092,3.932,11.157z"/>
		<path fill="#FFFFFF" d="M1.901,1.77c-0.498,0.35-0.998,0.701-1.498,1.052C0.297,2.896,0.399,3.068,0.504,2.993
			c0.5-0.351,1-0.702,1.5-1.052C2.108,1.867,2.006,1.695,1.901,1.77z"/>
		<path fill="#FFFFFF" d="M2.106,1.075c-0.285,0.146-0.57,0.292-0.857,0.438C1.133,1.572,1.237,1.743,1.352,1.686
			c0.285-0.146,0.57-0.292,0.855-0.438C2.323,1.188,2.219,1.018,2.106,1.075z"/>
		<path fill="#FFFFFF" d="M5.284,11.382c-0.688,0.372-1.348,0.786-1.98,1.244c-0.102,0.076-0.002,0.248,0.104,0.173
			c0.631-0.461,1.291-0.873,1.979-1.245C5.499,11.492,5.395,11.32,5.284,11.382z"/>
		<path fill="#FFFFFF" d="M6.278,11.645c-0.645,0.324-1.258,0.693-1.846,1.109c-0.105,0.074-0.004,0.247,0.1,0.173
			c0.59-0.415,1.205-0.786,1.848-1.109C6.495,11.759,6.391,11.588,6.278,11.645z"/>
		<path fill="#FFFFFF" d="M7.334,11.982c-0.623,0.281-1.217,0.608-1.785,0.986c-0.107,0.07-0.006,0.243,0.102,0.171
			c0.568-0.377,1.164-0.705,1.785-0.985C7.553,12.101,7.45,11.93,7.334,11.982z"/>
		<path fill="#FFFFFF" d="M9.54,11.669c-0.865,0.409-1.688,0.89-2.469,1.442c-0.105,0.074-0.004,0.248,0.102,0.172
			c0.781-0.552,1.604-1.033,2.471-1.443C9.76,11.785,9.657,11.613,9.54,11.669z"/>
		<path fill="#FFFFFF" d="M10.856,11.675c-0.695,0.459-1.404,0.901-2.125,1.326c-0.111,0.065-0.008,0.237,0.102,0.171
			c0.721-0.423,1.43-0.865,2.127-1.325C11.067,11.775,10.963,11.604,10.856,11.675z"/>
		<path fill="#FFFFFF" d="M12.227,11.788c-0.787,0.418-1.576,0.835-2.361,1.252c-0.115,0.061-0.012,0.232,0.102,0.172
			c0.787-0.417,1.576-0.835,2.361-1.251C12.444,11.9,12.34,11.729,12.227,11.788z"/>
		<path fill="#FFFFFF" d="M13.588,11.682c-0.797,0.452-1.594,0.904-2.389,1.356c-0.111,0.063-0.008,0.234,0.102,0.171
			c0.797-0.452,1.594-0.904,2.389-1.355C13.803,11.791,13.7,11.617,13.588,11.682z"/>
		<path fill="#FFFFFF" d="M15.086,11.604c-0.748,0.378-1.455,0.821-2.121,1.333c-0.1,0.077,0.002,0.251,0.104,0.172
			c0.664-0.511,1.371-0.955,2.121-1.333C15.303,11.717,15.2,11.546,15.086,11.604z"/>
		<path fill="#FFFFFF" d="M16.288,11.628l-0.896,0.607c-0.107,0.071-0.004,0.244,0.102,0.171l0.898-0.606
			C16.497,11.728,16.393,11.555,16.288,11.628z"/>
	</g>
	<path fill="#FFFFFF" d="M1.536,12.552c0.859,0.663,4.742,0.865,7.977,0.865c1.838,0,3.467-0.065,4.211-0.147
		c2.287-0.256,2.803-0.391,3.564-1.379c0.762-0.987,1.049-5.117,0.717-7.599c-0.334-2.49-0.887-3.538-2.109-4.003
		c-0.971-0.37-9.26-0.298-12.781-0.249H3.055C1.77,0.045,0.45,1.319,0.112,2.879C-0.208,4.35,0.127,11.467,1.536,12.552z
		 M0.698,3.007c0.307-1.411,1.467-2.362,2.361-2.366L3.122,0.64c1.77-0.023,3.568-0.037,5.234-0.037
		c3.775,0,6.861,0.069,7.324,0.246c0.84,0.32,1.391,0.999,1.729,3.523c0.328,2.437-0.002,6.381-0.596,7.152
		c-0.611,0.79-0.906,0.897-3.154,1.148c-2.473,0.274-10.697,0.22-11.758-0.597C0.87,11.281,0.354,4.594,0.698,3.007z"/>
	<path fill="#FFFFFF" d="M7.479,9.172c0.045,0,0.094-0.004,0.146-0.012c0.777-0.127,4.371-2.18,4.42-2.758
		c0.018-0.211,0.041-0.499-4.096-2.713c-0.195-0.104-0.408-0.08-0.568,0.067C6.668,4.406,6.833,8.411,7.049,8.921
		C7.092,9.021,7.204,9.172,7.479,9.172z M7.741,4.258c1.508,0.811,3.125,1.746,3.611,2.125c-0.645,0.572-3.125,2.062-3.785,2.182
		C7.405,7.805,7.42,4.814,7.741,4.258z"/>
</g>
</svg>
