<?xml version="1.0" encoding="utf-8"?>
<!-- Generator: Adobe Illustrator 16.0.0, SVG Export Plug-In . SVG Version: 6.00 Build 0)  -->
<!DOCTYPE svg PUBLIC "-//W3C//DTD SVG 1.1//EN" "http://www.w3.org/Graphics/SVG/1.1/DTD/svg11.dtd">
<svg version="1.1" id="Capa_1" xmlns="http://www.w3.org/2000/svg" xmlns:xlink="http://www.w3.org/1999/xlink" x="0px" y="0px"
	 width="27.18px" height="29.455px" viewBox="0 0 27.18 29.455" enable-background="new 0 0 27.18 29.455" xml:space="preserve">
<g>
	<g>
		<path d="M3.075,8.938c-0.933,0.44-1.83,0.943-2.692,1.511c-0.161,0.106-0.008,0.364,0.153,0.257
			c0.863-0.566,1.76-1.069,2.692-1.509C3.403,9.113,3.247,8.856,3.075,8.938z"/>
		<path d="M3.453,9.731c-0.979,0.474-1.926,1-2.843,1.583c-0.163,0.103-0.01,0.361,0.152,0.259c0.919-0.584,1.865-1.111,2.844-1.583
			C3.78,9.906,3.625,9.649,3.453,9.731z"/>
		<path d="M3.443,10.951c-0.997,0.549-1.935,1.182-2.819,1.896c-0.15,0.119,0.068,0.325,0.217,0.206
			c0.864-0.696,1.785-1.309,2.756-1.845C3.767,11.116,3.613,10.857,3.443,10.951z"/>
		<path d="M3.255,12.302c-0.842,0.567-1.695,1.118-2.56,1.652c-0.164,0.101-0.011,0.358,0.154,0.257
			c0.863-0.534,1.717-1.084,2.56-1.65C3.567,12.453,3.415,12.194,3.255,12.302z"/>
		<path d="M3.329,13.346c-0.459,0.243-0.909,0.499-1.35,0.769c-0.222,0.137-0.439,0.275-0.655,0.419
			c-0.171,0.112-0.416,0.365-0.631,0.365c-0.193,0-0.186,0.301,0.005,0.299c0.418,0,0.848-0.456,1.187-0.672
			c0.521-0.327,1.055-0.633,1.597-0.923C3.651,13.512,3.498,13.256,3.329,13.346z"/>
		<path d="M3.004,14.492c-0.845,0.458-1.619,1.017-2.322,1.669c-0.142,0.13,0.074,0.337,0.216,0.206
			c0.685-0.634,1.439-1.172,2.259-1.617C3.327,14.657,3.173,14.401,3.004,14.492z"/>
		<path d="M3.632,15.341c-0.87,0.485-1.672,1.066-2.407,1.738c-0.144,0.13,0.074,0.337,0.215,0.207
			c0.718-0.654,1.5-1.216,2.349-1.687C3.956,15.504,3.802,15.248,3.632,15.341z"/>
		<path d="M3.483,16.58c-0.92,0.654-1.813,1.344-2.682,2.063c-0.148,0.124,0.07,0.329,0.217,0.208
			c0.848-0.703,1.722-1.375,2.618-2.014C3.793,16.726,3.64,16.467,3.483,16.58z"/>
		<path d="M3.716,17.716c-0.903,0.572-1.752,1.214-2.551,1.925c-0.145,0.129,0.073,0.336,0.215,0.208
			c0.779-0.694,1.609-1.317,2.489-1.875C4.031,17.871,3.879,17.612,3.716,17.716z"/>
		<path d="M3.893,18.859c-0.844,0.476-1.611,1.055-2.305,1.73c-0.139,0.135,0.078,0.342,0.216,0.208
			c0.676-0.658,1.422-1.218,2.242-1.682C4.215,19.021,4.061,18.765,3.893,18.859z"/>
		<path d="M4.131,19.931c-0.853,0.604-1.63,1.297-2.325,2.077c-0.127,0.143,0.089,0.351,0.218,0.207
			c0.678-0.76,1.43-1.437,2.262-2.027C4.441,20.078,4.289,19.819,4.131,19.931z"/>
		<path d="M4.878,20.79c-0.863,0.592-1.653,1.27-2.369,2.035c-0.131,0.141,0.086,0.348,0.218,0.205
			c0.696-0.743,1.464-1.405,2.306-1.983C5.191,20.938,5.038,20.681,4.878,20.79z"/>
		<path d="M5.892,21.394c-0.854,0.505-1.652,1.086-2.396,1.742c-0.146,0.127,0.071,0.334,0.217,0.207
			c0.726-0.639,1.502-1.2,2.333-1.691C6.212,21.553,6.06,21.296,5.892,21.394z"/>
		<path d="M2.85,7.327C2.1,7.853,1.352,8.379,0.603,8.904c-0.157,0.11-0.004,0.368,0.153,0.259C1.505,8.637,2.255,8.11,3.004,7.585
			C3.16,7.475,3.007,7.217,2.85,7.327z"/>
		<path d="M3.154,6.289C2.728,6.506,2.298,6.727,1.871,6.945C1.7,7.032,1.854,7.29,2.025,7.202c0.429-0.218,0.856-0.438,1.283-0.656
			C3.479,6.457,3.326,6.2,3.154,6.289z"/>
		<path d="M7.915,21.728c-1.031,0.558-2.019,1.179-2.965,1.867c-0.155,0.112-0.003,0.371,0.152,0.257
			c0.947-0.688,1.936-1.309,2.965-1.866C8.238,21.894,8.083,21.637,7.915,21.728z"/>
		<path d="M9.404,22.124c-0.964,0.485-1.884,1.039-2.767,1.662c-0.156,0.11-0.003,0.368,0.154,0.256
			c0.881-0.622,1.803-1.174,2.767-1.66C9.732,22.294,9.576,22.038,9.404,22.124z"/>
		<path d="M10.987,22.629c-0.932,0.421-1.822,0.913-2.673,1.478c-0.16,0.106-0.008,0.363,0.152,0.257
			c0.852-0.565,1.743-1.056,2.675-1.477C11.317,22.807,11.162,22.55,10.987,22.629z"/>
		<path d="M14.294,22.158c-1.298,0.614-2.529,1.334-3.701,2.164c-0.158,0.11-0.005,0.369,0.153,0.258
			c1.171-0.83,2.404-1.55,3.7-2.164C14.622,22.332,14.466,22.076,14.294,22.158z"/>
		<path d="M16.267,22.17c-1.045,0.688-2.106,1.35-3.186,1.984c-0.167,0.099-0.015,0.356,0.153,0.259
			c1.079-0.637,2.141-1.298,3.186-1.987C16.582,22.32,16.428,22.063,16.267,22.17z"/>
		<path d="M18.318,22.339c-1.179,0.625-2.359,1.251-3.539,1.875c-0.171,0.091-0.017,0.349,0.153,0.259
			c1.181-0.627,2.359-1.251,3.541-1.877C18.644,22.505,18.489,22.249,18.318,22.339z"/>
		<path d="M20.357,22.18c-1.192,0.677-2.385,1.354-3.578,2.031c-0.167,0.094-0.013,0.353,0.154,0.257
			c1.193-0.677,2.385-1.354,3.577-2.031C20.68,22.341,20.525,22.084,20.357,22.18z"/>
		<path d="M22.603,22.062c-1.121,0.565-2.181,1.232-3.175,1.997c-0.152,0.117,0,0.376,0.153,0.259
			c0.995-0.767,2.054-1.433,3.175-1.999C22.93,22.232,22.775,21.975,22.603,22.062z"/>
		<path d="M24.402,22.098l-1.343,0.909c-0.16,0.107-0.007,0.366,0.153,0.258l1.344-0.908C24.714,22.248,24.562,21.99,24.402,22.098z
			"/>
	</g>
	<path d="M2.298,23.482c1.292,0.994,7.106,1.296,11.953,1.296c2.753,0,5.194-0.098,6.31-0.222c3.428-0.381,4.199-0.584,5.341-2.064
		c1.141-1.479,1.572-7.668,1.073-11.386c-0.501-3.729-1.327-5.3-3.162-5.999C22.361,4.555,9.94,4.664,4.667,4.736l-0.09,0.002
		C2.652,4.744,0.672,6.652,0.167,8.99C-0.312,11.195,0.191,21.856,2.298,23.482z M1.045,9.182c0.46-2.113,2.199-3.539,3.537-3.545
		l0.097-0.001C7.326,5.6,10.023,5.578,12.52,5.578c5.655,0,10.28,0.105,10.973,0.371c1.257,0.479,2.085,1.494,2.591,5.277
		c0.49,3.653-0.004,9.562-0.893,10.716c-0.915,1.186-1.356,1.347-4.728,1.72c-3.702,0.412-16.024,0.332-17.614-0.893
		C1.304,21.578,0.531,11.56,1.045,9.182z"/>
	<path d="M11.206,18.42c0.065,0,0.14-0.006,0.219-0.02c1.164-0.188,6.549-3.265,6.621-4.131c0.026-0.315,0.062-0.748-6.136-4.065
		c-0.29-0.157-0.608-0.12-0.852,0.102c-1.068,0.973-0.823,6.974-0.497,7.737C10.626,18.192,10.791,18.42,11.206,18.42z
		 M11.599,11.059c2.258,1.211,4.683,2.615,5.409,3.181c-0.966,0.858-4.682,3.089-5.67,3.271
		C11.093,16.37,11.119,11.889,11.599,11.059z"/>
</g>
</svg>
